<svg id="Layer_1" data-name="Layer 1" xmlns="http://www.w3.org/2000/svg" viewBox="0 0 30 30"><defs><style>.cls-1{fill:#fff;}</style></defs><path class="cls-1" d="M16.12,2.46v2.2h-11c-1.89,0-2.67.77-2.67,2.67q0,8.77,0,17.56c0,1.94.79,2.71,2.74,2.71q8.75,0,17.47,0c2,0,2.73-.76,2.73-2.71,0-3.29,0-6.57,0-9.86V13.92H27.6c0,.3.06.58.06.87,0,3.41,0,6.83,0,10.24a4.61,4.61,0,0,1-4.84,4.85q-8.94,0-17.86,0A4.56,4.56,0,0,1,.14,25q0-8.94,0-17.86A4.53,4.53,0,0,1,4.63,2.38c3.71-.08,7.42,0,11.12,0A1.58,1.58,0,0,1,16.12,2.46Z"/><path class="cls-1" d="M26.09,2.32H20.87V.11h9v9H27.69V3.93L12.53,19.32l-1.79-1.87Z"/></svg>