<svg width="41" height="42" viewBox="0 0 41 42" fill="none" xmlns="http://www.w3.org/2000/svg">
<path d="M0 20.5C0 9.17816 9.17816 0 20.5 0C31.8218 0 41 9.17816 41 20.5V21.5C41 32.8218 31.8218 42 20.5 42C9.17816 42 0 32.8218 0 21.5V20.5Z" fill="white"/>
<path d="M30.4458 11.3648C28.6165 10.4785 26.655 9.82552 24.604 9.45152C24.5667 9.4443 24.5293 9.46234 24.5101 9.49842C24.2578 9.97222 23.9784 10.5903 23.7827 11.0762C21.5768 10.7274 19.3821 10.7274 17.2214 11.0762C17.0257 10.5795 16.7361 9.97222 16.4827 9.49842C16.4635 9.46354 16.4262 9.44551 16.3888 9.45152C14.339 9.82432 12.3774 10.4773 10.547 11.3648C10.5312 11.372 10.5176 11.3841 10.5086 11.3997C6.78787 17.2694 5.76861 22.9949 6.26863 28.6494C6.27089 28.6771 6.2856 28.7036 6.30596 28.7204C8.76078 30.624 11.1387 31.7797 13.4724 32.5457C13.5098 32.5578 13.5494 32.5433 13.5731 32.5109C14.1252 31.7148 14.6173 30.8754 15.0392 29.9927C15.0641 29.941 15.0404 29.8796 14.9895 29.8592C14.2089 29.5465 13.4657 29.1653 12.7507 28.7324C12.6942 28.6975 12.6896 28.6121 12.7416 28.5712C12.8921 28.4522 13.0426 28.3283 13.1863 28.2032C13.2122 28.1804 13.2485 28.1756 13.279 28.19C17.976 30.4545 23.061 30.4545 27.7025 28.19C27.733 28.1744 27.7693 28.1792 27.7964 28.202C27.9401 28.3271 28.0905 28.4522 28.2421 28.5712C28.2941 28.6121 28.2907 28.6975 28.2342 28.7324C27.5192 29.1737 26.776 29.5465 25.9943 29.858C25.9434 29.8785 25.9208 29.941 25.9457 29.9927C26.3767 30.8742 26.8688 31.7136 27.4106 32.5097C27.4333 32.5433 27.474 32.5578 27.5113 32.5457C29.8564 31.7797 32.2343 30.624 34.6891 28.7204C34.7106 28.7036 34.7242 28.6783 34.7265 28.6506C35.3249 22.1134 33.7241 16.4349 30.4831 11.4009C30.4752 11.3841 30.4616 11.372 30.4458 11.3648ZM15.7406 25.2064C14.3265 25.2064 13.1614 23.8355 13.1614 22.1519C13.1614 20.4683 14.3039 19.0974 15.7406 19.0974C17.1886 19.0974 18.3425 20.4803 18.3199 22.1519C18.3199 23.8355 17.1773 25.2064 15.7406 25.2064ZM25.2771 25.2064C23.863 25.2064 22.6978 23.8355 22.6978 22.1519C22.6978 20.4683 23.8404 19.0974 25.2771 19.0974C26.7251 19.0974 27.879 20.4803 27.8564 22.1519C27.8564 23.8355 26.7251 25.2064 25.2771 25.2064Z" fill="#212121"/>
</svg>
