<svg width="20" height="20" viewBox="0 0 20 20" fill="none" xmlns="http://www.w3.org/2000/svg">
<path fill-rule="evenodd" clip-rule="evenodd" d="M17.4993 16.6667C17.9596 16.6667 18.3327 17.0398 18.3327 17.5C18.3327 17.9602 17.9596 18.3333 17.4993 18.3333H2.49935C2.03911 18.3333 1.66602 17.9602 1.66602 17.5C1.66602 17.0398 2.03911 16.6667 2.49935 16.6667H17.4993ZM5.24343 11.0774L14.4101 1.91074C14.7105 1.61034 15.1832 1.58723 15.5101 1.84142L15.5886 1.91074L18.0886 4.41074C18.389 4.71114 18.4121 5.18384 18.1579 5.51075L18.0886 5.58925L8.92194 14.7559C8.7917 14.8862 8.6228 14.9688 8.44222 14.9928L8.33268 15H5.83268C5.40532 15 5.05309 14.6783 5.00496 14.2638L4.99935 14.1667V11.6667C4.99935 11.4825 5.06032 11.3046 5.17108 11.16L5.24343 11.0774L14.4101 1.91074L5.24343 11.0774ZM14.9993 3.67851L6.66602 12.0118V13.3333H7.9875L16.3208 5L14.9993 3.67851Z" fill="#5F738C"/>
</svg>
