<svg width="50" height="50" viewBox="0 0 50 50" fill="none" xmlns="http://www.w3.org/2000/svg">
<circle cx="25" cy="25.0001" r="20.8333" fill="white"/>
<path d="M25 14.7522C28.3376 14.7522 28.733 14.765 30.0511 14.8251C31.2698 14.8807 31.9317 15.0843 32.3721 15.2555C32.9556 15.4823 33.372 15.7531 33.8094 16.1905C34.2468 16.628 34.5177 17.0444 34.7445 17.6278C34.9157 18.0683 35.1193 18.7302 35.1749 19.9489C35.235 21.267 35.2477 21.6623 35.2477 24.9999C35.2477 28.3376 35.235 28.7329 35.1749 30.051C35.1193 31.2697 34.9157 31.9316 34.7445 32.3721C34.5177 32.9555 34.2468 33.3719 33.8094 33.8093C33.372 34.2468 32.9556 34.5176 32.3721 34.7444C31.9317 34.9156 31.2698 35.1192 30.0511 35.1748C28.7332 35.2349 28.3379 35.2477 25 35.2477C21.6621 35.2477 21.2669 35.2349 19.9489 35.1748C18.7302 35.1192 18.0683 34.9156 17.6279 34.7444C17.0444 34.5176 16.628 34.2468 16.1906 33.8093C15.7532 33.3719 15.4823 32.9555 15.2555 32.3721C15.0843 31.9316 14.8807 31.2697 14.8251 30.051C14.765 28.7329 14.7522 28.3376 14.7522 24.9999C14.7522 21.6623 14.765 21.267 14.8251 19.9489C14.8807 18.7302 15.0843 18.0683 15.2555 17.6278C15.4823 17.0444 15.7532 16.628 16.1906 16.1906C16.628 15.7531 17.0444 15.4823 17.6279 15.2555C18.0683 15.0843 18.7302 14.8807 19.9489 14.8251C21.267 14.765 21.6624 14.7522 25 14.7522ZM25 12.5C21.6052 12.5 21.1795 12.5144 19.8463 12.5752C18.5158 12.6359 17.6071 12.8472 16.812 13.1562C15.99 13.4757 15.2929 13.9031 14.598 14.598C13.9031 15.2929 13.4757 15.99 13.1563 16.812C12.8472 17.6071 12.6359 18.5158 12.5752 19.8462C12.5144 21.1795 12.5 21.6052 12.5 24.9999C12.5 28.3947 12.5144 28.8204 12.5752 30.1537C12.6359 31.4841 12.8472 32.3928 13.1563 33.1879C13.4757 34.0099 13.9031 34.707 14.598 35.4019C15.2929 36.0968 15.99 36.5243 16.812 36.8437C17.6071 37.1527 18.5158 37.364 19.8463 37.4247C21.1795 37.4855 21.6052 37.4999 25 37.4999C28.3948 37.4999 28.8205 37.4855 30.1537 37.4247C31.4842 37.364 32.3929 37.1527 33.188 36.8437C34.01 36.5243 34.7071 36.0968 35.402 35.4019C36.0969 34.707 36.5243 34.0099 36.8438 33.1879C37.1528 32.3928 37.3641 31.4841 37.4248 30.1537C37.4856 28.8204 37.5 28.3947 37.5 24.9999C37.5 21.6052 37.4856 21.1795 37.4248 19.8462C37.3641 18.5158 37.1528 17.6071 36.8438 16.812C36.5243 15.99 36.0969 15.2929 35.402 14.598C34.7071 13.9031 34.01 13.4757 33.188 13.1562C32.3929 12.8472 31.4842 12.6359 30.1537 12.5752C28.8205 12.5144 28.3948 12.5 25 12.5Z" fill="#212121"/>
<path d="M25.0059 18.5869C21.4607 18.5869 18.5869 21.4607 18.5869 25.0058C18.5869 28.5509 21.4607 31.4247 25.0059 31.4247C28.5509 31.4247 31.4247 28.5509 31.4247 25.0058C31.4247 21.4607 28.5509 18.5869 25.0059 18.5869ZM25.0059 29.1725C22.7046 29.1725 20.8392 27.307 20.8392 25.0058C20.8392 22.7046 22.7046 20.8392 25.0059 20.8392C27.307 20.8392 29.1725 22.7046 29.1725 25.0058C29.1725 27.307 27.307 29.1725 25.0059 29.1725Z" fill="#212121"/>
<path d="M33.1779 18.3294C33.1779 19.1578 32.5063 19.8293 31.6778 19.8293C30.8494 19.8293 30.1779 19.1578 30.1779 18.3294C30.1779 17.5009 30.8494 16.8293 31.6778 16.8293C32.5063 16.8293 33.1779 17.5009 33.1779 18.3294Z" fill="#212121"/>
</svg>
