<svg width="49" height="50" viewBox="0 0 49 50" fill="none" xmlns="http://www.w3.org/2000/svg">
<ellipse cx="24.5" cy="25.0001" rx="20.4167" ry="20.8333" fill="white"/>
<path fill-rule="evenodd" clip-rule="evenodd" d="M19.1658 14.879C19.1658 16.176 18.1981 17.2256 16.6846 17.2256C15.2301 17.2256 14.2624 16.176 14.2923 14.879C14.2624 13.519 15.2301 12.5 16.7136 12.5C18.198 12.5 19.1368 13.519 19.1658 14.879ZM14.414 34.1865V19.0794H19.0151V34.1855H14.414V34.1865Z" fill="#212121"/>
<path fill-rule="evenodd" clip-rule="evenodd" d="M22.7031 23.9007C22.7031 22.0164 22.6423 20.41 22.5814 19.0815H26.578L26.7904 21.1511H26.8812C27.4868 20.1932 29.0002 18.7424 31.4524 18.7424C34.4793 18.7424 36.75 20.7815 36.75 25.2282V34.1886H32.1488V25.8165C32.1488 23.8692 31.4833 22.5417 29.8183 22.5417C28.5463 22.5417 27.79 23.4375 27.4877 24.3018C27.3661 24.6113 27.3062 25.0429 27.3062 25.4765V34.1886H22.705V23.9007H22.7031Z" fill="#212121"/>
</svg>
