<svg fill="none" xmlns="http://www.w3.org/2000/svg" viewBox="0.08 0 116.92 20">     <path fill-rule="evenodd" clip-rule="evenodd" d="M2.18099 11.9998C0.527274 12.0045 -0.540242 13.8884 0.478555 15.3157C1.93757 17.3596 4.58333 19 9.00035 19C15.8454 19 21.34 13.4217 20.5708 6.8311L21.6977 4.5773C22.4792 3.01428 21.1212 1.23622 19.4076 1.57894L17.9188 1.87669C17.5241 1.66843 17.1156 1.51127 16.7665 1.39741C16.0861 1.17552 15.2626 1 14.5003 1C13.131 1 11.9492 1.35131 11.01 2.05593C10.0815 2.75264 9.55855 3.66825 9.27155 4.50905C9.13925 4.89661 9.05115 5.28534 8.99462 5.65843C8.46335 5.49123 7.92163 5.26626 7.39129 4.99155C6.18809 4.36832 5.21514 3.57822 4.66629 2.88551C3.74546 1.7233 1.79402 1.80947 1.10924 3.32021C0.144105 5.44947 0.408855 7.97346 1.27639 10.0129C1.56717 10.6964 1.94542 11.3721 2.40753 11.9983C2.32842 11.9992 2.25274 11.9996 2.18099 11.9998ZM9.00025 17C5.13691 17 3.13923 15.6007 2.10628 14.1537C2.05987 14.0887 2.10667 14 2.18654 13.9998C3.23738 13.9968 5.39438 13.9471 6.81698 13.1145C6.89055 13.0714 6.87436 12.9629 6.79356 12.9358C3.47739 11.8208 1.59236 7.09859 2.93074 4.1459C2.96143 4.0782 3.05243 4.06927 3.0986 4.12754C4.62747 6.05718 7.97027 7.9472 10.8786 7.99891C10.9417 8 10.9894 7.9427 10.9798 7.88033C10.8626 7.12053 10.4151 3 14.5002 3C15.4757 3 16.9271 3.47583 17.4617 3.9633C17.4864 3.98583 17.5199 3.99606 17.5527 3.9895L19.7997 3.5401C19.8813 3.52378 19.946 3.60845 19.9088 3.68288L18.5151 6.47019C18.5054 6.48954 18.5024 6.51175 18.5061 6.53306C19.4822 12.02 14.9882 17 9.00025 17Z" fill="#777E91"/>     <path fill-rule="evenodd" clip-rule="evenodd" d="M63 2H55C52.7909 2 51 3.79086 51 6V14C51 16.2091 52.7909 18 55 18H63C65.2091 18 67 16.2091 67 14V6C67 3.79086 65.2091 2 63 2ZM55 0C51.6863 0 49 2.68629 49 6V14C49 17.3137 51.6863 20 55 20H63C66.3137 20 69 17.3137 69 14V6C69 2.68629 66.3137 0 63 0H55Z" fill="#777E91"/>     <path d="M64 6C64.5523 6 65 5.55228 65 5C65 4.44772 64.5523 4 64 4C63.4477 4 63 4.44772 63 5C63 5.55228 63.4477 6 64 6Z" fill="#777E91"/>     <path fill-rule="evenodd" clip-rule="evenodd" d="M64 10C64 12.7614 61.7614 15 59 15C56.2386 15 54 12.7614 54 10C54 7.23858 56.2386 5 59 5C61.7614 5 64 7.23858 64 10ZM62 10C62 11.6569 60.6569 13 59 13C57.3431 13 56 11.6569 56 10C56 8.3431 57.3431 7 59 7C60.6569 7 62 8.3431 62 10Z" fill="#777E91"/>     <path fill-rule="evenodd" clip-rule="evenodd" d="M107 18C111.418 18 115 14.4183 115 10C115 5.58172 111.418 2 107 2C102.582 2 99 5.58172 99 10C99 14.4183 102.582 18 107 18ZM107 20C112.523 20 117 15.5228 117 10C117 4.47715 112.523 0 107 0C101.477 0 97 4.47715 97 10C97 15.5228 101.477 20 107 20Z" fill="#777E91"/>     <path d="M107 8C107 7.44772 107.448 7 108 7H109C109.552 7 110 6.55229 110 6C110 5.44772 109.552 5 109 5H108C106.343 5 105 6.34315 105 8V10H104C103.448 10 103 10.4477 103 11C103 11.5523 103.448 12 104 12H105V18C105 18.5523 105.448 19 106 19C106.552 19 107 18.5523 107 18V12H109C109.552 12 110 11.5523 110 11C110 10.4477 109.552 10 109 10H107V8Z" fill="#777E91"/>     </svg>