<?xml version="1.0" encoding="utf-8" standalone="yes"?> <svg width="1012" height="1012" viewBox="-1 -1 23 23" xmlns="http://www.w3.org/2000/svg" xmlns:xlink="http://www.w3.org/1999/xlink" shape-rendering="crispEdges" id="qr code"><rect id="qr background" fill-opacity="1" fill="rgb(255, 255, 255)" x="-1" y="-1" width="23" height="23"></rect><path fill-opacity="1" fill="rgb(0, 0, 0)" id="qr dark pixels" fill-rule="evenodd" d="M 9 0 L 10 0 L 10 1 L 11 1 L 11 0 L 13 0 L 13 1 L 12 1 L 12 2 L 13 2 L 13 3 L 12 3 L 12 4 L 11 4 L 11 2 L 10 2 L 10 4 L 9 4 L 9 3 L 8 3 L 8 2 L 9 2 z M 10 4 L 11 4 L 11 5 L 10 5 z M 12 4 L 13 4 L 13 8 L 12 8 L 12 9 L 10 9 L 10 10 L 11 10 L 11 12 L 9 12 L 9 11 L 6 11 L 6 10 L 9 10 L 9 9 L 5 9 L 5 11 L 6 11 L 6 12 L 8 12 L 8 13 L 5 13 L 5 12 L 4 12 L 4 13 L 3 13 L 3 11 L 4 11 L 4 10 L 2 10 L 2 9 L 1 9 L 1 10 L 2 10 L 2 11 L 0 11 L 0 8 L 3 8 L 3 9 L 4 9 L 4 8 L 8 8 L 8 6 L 9 6 L 9 7 L 10 7 L 10 8 L 11 8 L 11 7 L 12 7 z M 10 6 L 11 6 L 11 7 L 10 7 z M 13 8 L 15 8 L 15 9 L 16 9 L 16 10 L 14 10 L 14 9 L 13 9 z M 18 8 L 19 8 L 19 9 L 18 9 z M 20 9 L 21 9 L 21 11 L 20 11 L 20 12 L 19 12 L 19 11 L 18 11 L 18 10 L 20 10 z M 12 10 L 13 10 L 13 11 L 12 11 z M 16 10 L 17 10 L 17 12 L 16 12 z M 14 11 L 15 11 L 15 12 L 16 12 L 16 13 L 17 13 L 17 16 L 16 16 L 16 14 L 15 14 L 15 13 L 14 13 z M 0 12 L 1 12 L 1 13 L 0 13 z M 12 12 L 13 12 L 13 13 L 12 13 z M 17 12 L 18 12 L 18 13 L 17 13 z M 8 13 L 9 13 L 9 15 L 10 15 L 10 16 L 9 16 L 9 17 L 8 17 z M 11 13 L 12 13 L 12 15 L 13 15 L 13 13 L 14 13 L 14 14 L 15 14 L 15 15 L 14 15 L 14 16 L 16 16 L 16 17 L 17 17 L 17 16 L 18 16 L 18 18 L 17 18 L 17 19 L 18 19 L 18 21 L 17 21 L 17 20 L 15 20 L 15 21 L 14 21 L 14 19 L 16 19 L 16 18 L 14 18 L 14 17 L 13 17 L 13 16 L 12 16 L 12 17 L 11 17 L 11 20 L 9 20 L 9 21 L 8 21 L 8 18 L 9 18 L 9 19 L 10 19 L 10 18 L 9 18 L 9 17 L 10 17 L 10 16 L 11 16 L 11 15 L 10 15 L 10 14 L 11 14 z M 19 13 L 21 13 L 21 17 L 20 17 L 20 18 L 19 18 L 19 16 L 20 16 L 20 15 L 18 15 L 18 14 L 19 14 z M 12 18 L 13 18 L 13 19 L 12 19 z M 18 18 L 19 18 L 19 19 L 18 19 z M 20 18 L 21 18 L 21 19 L 20 19 z M 19 19 L 20 19 L 20 20 L 21 20 L 21 21 L 19 21 z M 12 20 L 13 20 L 13 21 L 12 21 z"></path><path id="qr squares" d="M0,0h7h0v0v7v0h0h-7h0v0v-7v0h0zM1,1h5h0v0v5v0h0h-5h0v0v-5v0h0zM2,2h3h0v0v3v0h0h-3h0v0v-3v0h0z M14,0h7h0v0v7v0h0h-7h0v0v-7v0h0zM15,1h5h0v0v5v0h0h-5h0v0v-5v0h0zM16,2h3h0v0v3v0h0h-3h0v0v-3v0h0z M0,14h7h0v0v7v0h0h-7h0v0v-7v0h0zM1,15h5h0v0v5v0h0h-5h0v0v-5v0h0zM2,16h3h0v0v3v0h0h-3h0v0v-3v0h0z" fill-rule="evenodd" fill-opacity="1" fill="rgb(0, 0, 0)"></path></svg>