<svg width="41" height="42" viewBox="0 0 41 42" fill="none" xmlns="http://www.w3.org/2000/svg">
<path d="M20.5 42C31.8218 42 41 32.598 41 21C41 9.40202 31.8218 0 20.5 0C9.17816 0 0 9.40202 0 21C0 32.598 9.17816 42 20.5 42Z" fill="white"/>
<path d="M34.1667 21C34.1667 19.3053 32.824 17.9298 31.1697 17.9298C30.3544 17.9298 29.6352 18.2491 29.1077 18.7895C27.0697 17.2912 24.2404 16.3088 21.1235 16.186L22.4901 9.62807L26.9258 10.586C26.9737 11.7404 27.9088 12.6737 29.0597 12.6737C30.2346 12.6737 31.1936 11.6912 31.1936 10.4877C31.1936 9.28422 30.2346 8.30176 29.0597 8.30176C28.2205 8.30176 27.5012 8.79299 27.1656 9.52983L22.2024 8.44913C22.0585 8.42457 21.9147 8.44913 21.7948 8.52281C21.6749 8.5965 21.603 8.7193 21.555 8.86667L20.0445 16.186C16.8556 16.2842 14.0024 17.2421 11.9404 18.7895C11.4129 18.2737 10.6697 17.9298 9.87842 17.9298C8.22404 17.9298 6.88135 19.3053 6.88135 21C6.88135 22.2526 7.60065 23.3088 8.65562 23.8C8.60766 24.0947 8.58369 24.414 8.58369 24.7333C8.58369 29.4491 13.9305 33.2561 20.548 33.2561C27.1656 33.2561 32.5123 29.4491 32.5123 24.7333C32.5123 24.414 32.4884 24.1193 32.4404 23.8246C33.4235 23.3333 34.1667 22.2526 34.1667 21ZM13.6667 23.186C13.6667 21.9825 14.6258 21 15.8006 21C16.9755 21 17.9346 21.9825 17.9346 23.186C17.9346 24.3895 16.9755 25.3719 15.8006 25.3719C14.6258 25.3719 13.6667 24.3895 13.6667 23.186ZM25.5831 28.9579C24.1205 30.4561 21.3392 30.5544 20.524 30.5544C19.7088 30.5544 16.9036 30.4316 15.465 28.9579C15.2492 28.7368 15.2492 28.3684 15.465 28.1474C15.6808 27.9263 16.0404 27.9263 16.2562 28.1474C17.1673 29.0807 19.1334 29.4246 20.548 29.4246C21.9626 29.4246 23.9047 29.0807 24.8398 28.1474C25.0556 27.9263 25.4153 27.9263 25.6311 28.1474C25.7989 28.393 25.7989 28.7368 25.5831 28.9579ZM25.1995 25.3719C24.0246 25.3719 23.0656 24.3895 23.0656 23.186C23.0656 21.9825 24.0246 21 25.1995 21C26.3743 21 27.3334 21.9825 27.3334 23.186C27.3334 24.3895 26.3743 25.3719 25.1995 25.3719Z" fill="#212121"/>
</svg>
