<svg width="50" height="50" viewBox="0 0 50 50" fill="none" xmlns="http://www.w3.org/2000/svg">
<circle cx="25" cy="25.0001" r="20.8333" fill="white"/>
<path fill-rule="evenodd" clip-rule="evenodd" d="M37.5 16.9881C36.5809 17.3964 35.5918 17.6714 34.5544 17.7955C35.6135 17.1606 36.4267 16.1556 36.8092 14.9582C35.8193 15.5465 34.7202 15.9723 33.5528 16.2031C32.617 15.2065 31.2829 14.5833 29.8088 14.5833C26.9765 14.5833 24.68 16.8798 24.68 19.7121C24.68 20.1137 24.7259 20.5054 24.8133 20.8812C20.5503 20.6678 16.7714 18.6255 14.2416 15.5224C13.7999 16.2798 13.5474 17.1606 13.5474 18.1005C13.5474 19.8796 14.4515 21.4495 15.8289 22.3694C14.9873 22.3427 14.1974 22.1119 13.5049 21.7278V21.7919C13.5049 24.2776 15.274 26.35 17.6188 26.8224C17.1889 26.9391 16.7356 27.0024 16.2681 27.0024C15.9373 27.0024 15.6156 26.9699 15.3023 26.9099C15.9548 28.9473 17.8496 30.4305 20.0937 30.4722C18.3388 31.8471 16.1273 32.6679 13.7241 32.6679C13.3091 32.6679 12.9008 32.6437 12.5 32.5954C14.7698 34.0503 17.4655 34.9002 20.362 34.9002C29.7955 34.9002 34.9543 27.0849 34.9543 20.3079C34.9543 20.0854 34.9502 19.8637 34.9393 19.6446C35.9426 18.9196 36.8125 18.0164 37.5 16.9881Z" fill="#212121"/>
</svg>
