<svg width="18" height="18" viewBox="0 0 18 18" fill="none" xmlns="http://www.w3.org/2000/svg">
    <path fill-rule="evenodd" clip-rule="evenodd" d="M8.73726 17.3149L7.45873 17.8875C6.90257 18.1366 6.24811 17.9612 5.8911 17.4676L5.07013 16.3324C4.96277 16.1839 4.79726 16.0882 4.61494 16.0695L3.22136 15.9263C2.61525 15.8639 2.13618 15.3848 2.07378 14.7787L1.93051 13.3851C1.9118 13.2028 1.81611 13.0373 1.66769 12.9299L0.532425 12.1089C0.0388258 11.752 -0.136594 11.0975 0.112408 10.5413L0.685118 9.26278C0.759957 9.09565 0.759957 8.90442 0.685118 8.73726L0.112408 7.45873C-0.136597 6.90257 0.0388225 6.24811 0.532425 5.8911L1.66769 5.07013C1.81611 4.96277 1.9118 4.79726 1.93051 4.61494L2.07378 3.22136C2.13619 2.61525 2.61525 2.13618 3.22136 2.07378L4.61494 1.93051C4.79727 1.9118 4.96276 1.81611 5.07013 1.66769L5.8911 0.532425C6.24808 0.0388257 6.90257 -0.136594 7.45873 0.112408L8.73726 0.685118C8.9044 0.759957 9.09562 0.759957 9.26278 0.685118L10.5413 0.112408C11.0975 -0.136597 11.7519 0.0388225 12.1089 0.532425L12.9299 1.66769C13.0373 1.81611 13.2028 1.9118 13.3851 1.93051L14.7787 2.07378C15.3848 2.13619 15.8639 2.61525 15.9263 3.22136L16.0695 4.61494C16.0882 4.79727 16.1839 4.96276 16.3324 5.07013L17.4676 5.8911C17.9612 6.24808 18.1366 6.90257 17.8875 7.45873L17.3149 8.73726C17.2401 8.9044 17.2401 9.09562 17.3149 9.26278L17.8875 10.5413C18.1366 11.0975 17.9612 11.7519 17.4676 12.1089L16.3324 12.9299C16.1839 13.0373 16.0882 13.2028 16.0695 13.3851L15.9263 14.7787C15.8639 15.3848 15.3848 15.8639 14.7787 15.9263L13.3851 16.0695C13.2028 16.0882 13.0373 16.1839 12.9299 16.3324L12.1089 17.4676C11.752 17.9612 11.0975 18.1366 10.5413 17.8875L9.26278 17.3149C9.09565 17.2401 8.90442 17.2401 8.73726 17.3149ZM5.52631 7.78368L4.43525 8.87474L8.09795 12.5374L13.7206 6.91481L12.6296 5.82375L8.09801 10.355L5.52631 7.78368Z" fill="#A56FFF"/>
    </svg>
    