<svg width="44" height="43" viewBox="0 0 44 43" fill="none" xmlns="http://www.w3.org/2000/svg">
    <path d="M14.028 36.7651C15.0499 36.4472 16.1199 36.9074 16.5764 37.769L16.5764 37.7691C18.8593 42.077 25.1407 42.077 27.4235 37.7691L27.4236 37.769C27.8801 36.9074 28.9501 36.4472 29.972 36.7651C34.5849 38.2002 39.2045 33.9662 37.6367 29.2029C37.3438 28.3129 37.7401 27.3069 38.6663 26.843L38.6664 26.843C43.1112 24.6166 43.1112 18.3834 38.6664 16.157L38.6663 16.1569C37.7401 15.6931 37.3438 14.6871 37.6367 13.7971C39.2046 9.0337 34.5848 4.79997 29.9721 6.23485L29.972 6.23486C28.9501 6.55275 27.8801 6.0925 27.4235 5.23093C25.1407 0.92301 18.8593 0.923043 16.5764 5.23091L16.5764 5.23094C16.1199 6.0925 15.0498 6.55275 14.028 6.23486L14.0279 6.23485C9.41503 4.79993 4.79568 9.03379 6.36324 13.797L6.36325 13.7971C6.65615 14.687 6.25981 15.6931 5.33365 16.157L5.33362 16.157C0.888808 18.3834 0.888776 24.6166 5.33362 26.843C6.25982 27.3069 6.65615 28.3129 6.36324 29.2029L6.36324 29.203C4.79571 33.9661 9.41489 38.2003 14.028 36.7651ZM14.028 36.7651L13.4339 34.8554M14.028 36.7651L13.4339 34.8554M13.4339 34.8554C10.2492 35.8462 7.24405 32.9244 8.26301 29.8282C8.87531 27.9677 8.01541 25.9494 6.22933 25.0548C3.25689 23.5659 3.25689 19.4341 6.22933 17.9452C8.01541 17.0506 8.87531 15.0323 8.26301 13.1718C7.24405 10.0756 10.2492 7.15393 13.4339 8.14459C15.3475 8.73989 17.4235 7.90387 18.3436 6.1674L35.737 29.8282C36.7561 32.9244 33.7508 35.8462 30.5661 34.8554C28.6525 34.2601 26.5765 35.096 25.6563 36.8326C24.1249 39.7225 19.8751 39.7225 18.3436 36.8326C17.4235 35.096 15.3475 34.2601 13.4339 34.8554Z" fill="#138EE0" stroke="white" stroke-width="4"/>
    <path fill-rule="evenodd" clip-rule="evenodd" d="M29.3188 16.3667C29.9386 16.9478 29.9566 17.9074 29.3589 18.5101L20.218 27.7262L14.6409 22.1032C14.0432 21.5005 14.0611 20.5409 14.681 19.9598C15.3009 19.3787 16.2879 19.3961 16.8856 19.9988L20.218 23.3586L27.1142 16.4057C27.7119 15.803 28.6989 15.7856 29.3188 16.3667Z" fill="white"/>
    </svg>
    