<svg width="42" height="42" viewBox="0 0 42 42" fill="none" xmlns="http://www.w3.org/2000/svg">
<g clip-path="url(#clip0_27_26)">
<path d="M14.266 18.765C14.7339 17.3494 15.6369 16.1178 16.8461 15.2458C18.0554 14.3738 19.5091 13.9059 21 13.909C22.69 13.909 24.218 14.509 25.418 15.491L28.91 12C26.782 10.145 24.055 9 21 9C16.27 9 12.198 11.698 10.24 15.65L14.266 18.765Z" fill="#EA4335"/>
<path d="M25.0401 27.013C23.9501 27.716 22.5661 28.091 21.0001 28.091C19.5151 28.0941 18.0669 27.6299 16.8603 26.7644C15.6537 25.8988 14.75 24.6756 14.2771 23.268L10.2371 26.335C11.2283 28.3413 12.7623 30.0294 14.6649 31.2076C16.5674 32.3857 18.7623 33.0067 21.0001 33C23.9331 33 26.7351 31.957 28.8341 30L25.0411 27.013H25.0401Z" fill="#34A853"/>
<path d="M28.834 30C31.029 27.952 32.454 24.904 32.454 21C32.454 20.29 32.345 19.527 32.182 18.818H21V23.455H27.436C27.119 25.014 26.266 26.221 25.041 27.013L28.834 30Z" fill="#4A90E2"/>
<path d="M14.277 23.268C14.0323 22.5369 13.9081 21.7709 13.909 21C13.909 20.218 14.034 19.467 14.266 18.765L10.24 15.65C9.41637 17.3127 8.9918 19.1445 8.99999 21C8.99999 22.92 9.44499 24.73 10.237 26.335L14.277 23.268Z" fill="#FBBC05"/>
</g>
<defs>
<clipPath id="clip0_27_26">
<rect width="24" height="24" fill="white" transform="translate(9 9)"/>
</clipPath>
</defs>
</svg>
