<svg width="24" height="24" viewBox="0 0 24 24" fill="none" xmlns="http://www.w3.org/2000/svg">
<path d="M5.33333 2.66667C5.33333 4.08267 4.38667 5.30133 2.66533 5.30133C1.04533 5.30133 0 4.152 0 2.736C0 1.28267 1.01333 0 2.66667 0C4.32 0 5.30133 1.21333 5.33333 2.66667ZM0 24V6.66667H5.33333V24H0Z" fill="#0C118F"/>
<path d="M8.00001 12.592C8.00001 10.532 7.93201 8.81062 7.86401 7.32395H12.656L12.8933 9.62129H12.9947C13.6693 8.53995 15.3227 6.95462 18.0907 6.95462C21.4667 6.95462 24 9.21462 24 14.0773V24H18.6667V14.852C18.6667 12.7266 17.8573 11.1053 16 11.1053C14.584 11.1053 13.8747 12.252 13.5027 13.1973C13.3667 13.536 13.3333 14.008 13.3333 14.4813V24H8.00001V12.592Z" fill="#0C118F"/>
</svg>
