<svg width="18" height="24" viewBox="0 0 18 24" fill="none" xmlns="http://www.w3.org/2000/svg">
<rect width="18" height="24" rx="2" fill="#0B3A6A"/>
<rect x="1" y="1.5" width="16" height="19.5" rx="1" fill="white"/>
<path opacity="0.3" fill-rule="evenodd" clip-rule="evenodd" d="M3.5 6.25C2.39543 6.25 1.5 7.14543 1.5 8.25V15.5C1.5 16.6046 2.39543 17.5 3.5 17.5H6.7624L8.11665 19.5426C8.52482 20.1583 9.43661 20.1341 9.81164 19.4978L10.989 17.5H14.5C15.6046 17.5 16.5 16.6046 16.5 15.5V8.25C16.5 7.14543 15.6046 6.25 14.5 6.25H3.5Z" fill="#1E428C"/>
<path fill-rule="evenodd" clip-rule="evenodd" d="M4.5 9.25H11.25C11.6642 9.25 12 9.58579 12 10C12 10.4142 11.6642 10.75 11.25 10.75H4.5C4.08579 10.75 3.75 10.4142 3.75 10C3.75 9.58579 4.08579 9.25 4.5 9.25ZM4.5 12.25H8.25C8.66421 12.25 9 12.5858 9 13C9 13.4142 8.66421 13.75 8.25 13.75H4.5C4.08579 13.75 3.75 13.4142 3.75 13C3.75 12.5858 4.08579 12.25 4.5 12.25Z" fill="#1E428C"/>
<circle cx="9" cy="22.5" r="1" fill="white"/>
<line x1="6.25" y1="0.75" x2="11.75" y2="0.75" stroke="white" stroke-width="0.5" stroke-linecap="round"/>
</svg>
