<svg width="25" height="24" viewBox="0 0 25 24" fill="none" xmlns="http://www.w3.org/2000/svg">
<path fill-rule="evenodd" clip-rule="evenodd" d="M7.64693 8C7.64693 5.23858 9.8855 3 12.6469 3H12.7998C15.5612 3 17.7998 5.23858 17.7998 8V10H18.8456C19.9502 10 20.8456 10.8954 20.8456 12V18C20.8456 19.1046 19.9502 20 18.8456 20H6.60107C5.49651 20 4.60107 19.1046 4.60107 18V12C4.60107 10.8954 5.4965 10 6.60107 10H7.64693V8ZM12.6775 5C11.0206 5 9.6775 6.34315 9.6775 8V10H15.7692V8C15.7692 6.34315 14.4261 5 12.7692 5H12.6775Z" fill="#1E428C"/>
</svg>
