<svg width="790" height="259" viewBox="0 0 790 259" fill="none" xmlns="http://www.w3.org/2000/svg">
<g clip-path="url(#clip0_101_2)">
<mask id="mask0_101_2" style="mask-type:luminance" maskUnits="userSpaceOnUse" x="0" y="0" width="790" height="259">
<path d="M0 -7.69158e-06H789.391V258.087H0V-7.69158e-06Z" fill="white"/>
</mask>
<g mask="url(#mask0_101_2)">
<path d="M768.526 47.4455V197.072C768.526 211.805 756.579 223.739 741.859 223.739H57.966C43.246 223.739 31.2993 211.805 31.2993 197.072V47.4455C31.2993 32.7255 43.246 20.7788 57.966 20.7788H741.859C756.579 20.7788 768.526 32.7255 768.526 47.4455Z" fill="black"/>
</g>
<path d="M142.268 190.325V179.663H138.063V177.185H149.514V179.663H145.309V190.325H142.268ZM150.944 190.325V180.226H153.872V190.325H150.944ZM152.408 178.818C151.87 178.818 151.432 178.661 151.094 178.349C150.756 178.036 150.587 177.648 150.587 177.185C150.587 176.722 150.756 176.334 151.094 176.021C151.432 175.708 151.87 175.552 152.408 175.552C152.946 175.552 153.384 175.702 153.722 176.002C154.06 176.29 154.229 176.665 154.229 177.128C154.229 177.616 154.06 178.023 153.722 178.349C153.397 178.661 152.959 178.818 152.408 178.818ZM161.471 190.475C160.382 190.475 159.412 190.256 158.561 189.818C157.71 189.368 157.041 188.748 156.553 187.96C156.077 187.171 155.839 186.277 155.839 185.275C155.839 184.262 156.077 183.367 156.553 182.591C157.041 181.803 157.71 181.189 158.561 180.751C159.412 180.301 160.382 180.076 161.471 180.076C162.535 180.076 163.461 180.301 164.249 180.751C165.038 181.189 165.62 181.821 165.995 182.647L163.724 183.868C163.461 183.392 163.129 183.042 162.729 182.816C162.341 182.591 161.915 182.478 161.452 182.478C160.952 182.478 160.501 182.591 160.101 182.816C159.7 183.042 159.381 183.361 159.143 183.774C158.918 184.187 158.805 184.687 158.805 185.275C158.805 185.864 158.918 186.364 159.143 186.777C159.381 187.19 159.7 187.509 160.101 187.735C160.501 187.96 160.952 188.072 161.452 188.072C161.915 188.072 162.341 187.966 162.729 187.753C163.129 187.528 163.461 187.171 163.724 186.683L165.995 187.922C165.62 188.736 165.038 189.368 164.249 189.818C163.461 190.256 162.535 190.475 161.471 190.475ZM170.048 188.26L170.123 184.693L174.835 180.226H178.326L173.802 184.825L172.282 186.064L170.048 188.26ZM167.626 190.325V176.396H170.555V190.325H167.626ZM175.154 190.325L171.737 186.083L173.577 183.811L178.702 190.325H175.154ZM184.609 190.475C183.458 190.475 182.444 190.25 181.568 189.799C180.705 189.349 180.035 188.736 179.559 187.96C179.084 187.171 178.846 186.277 178.846 185.275C178.846 184.262 179.078 183.367 179.541 182.591C180.016 181.803 180.661 181.189 181.474 180.751C182.288 180.301 183.207 180.076 184.234 180.076C185.222 180.076 186.111 180.288 186.899 180.714C187.7 181.127 188.332 181.727 188.795 182.516C189.258 183.292 189.49 184.224 189.49 185.313C189.49 185.426 189.484 185.557 189.471 185.707C189.459 185.845 189.446 185.976 189.434 186.101H181.23V184.393H187.894L186.768 184.9C186.768 184.374 186.662 183.918 186.449 183.53C186.236 183.142 185.942 182.841 185.566 182.629C185.191 182.403 184.753 182.291 184.252 182.291C183.752 182.291 183.308 182.403 182.92 182.629C182.544 182.841 182.25 183.148 182.037 183.548C181.825 183.936 181.718 184.399 181.718 184.938V185.388C181.718 185.939 181.837 186.427 182.075 186.852C182.325 187.265 182.669 187.584 183.107 187.81C183.558 188.022 184.084 188.129 184.684 188.129C185.222 188.129 185.692 188.047 186.092 187.885C186.505 187.722 186.881 187.478 187.218 187.153L188.777 188.842C188.313 189.368 187.732 189.774 187.031 190.062C186.33 190.338 185.523 190.475 184.609 190.475ZM195.569 190.475C194.38 190.475 193.454 190.175 192.791 189.574C192.128 188.961 191.796 188.054 191.796 186.852V177.992H194.725V186.815C194.725 187.24 194.837 187.572 195.062 187.81C195.288 188.035 195.594 188.148 195.982 188.148C196.445 188.148 196.84 188.022 197.165 187.772L197.953 189.837C197.653 190.05 197.29 190.212 196.865 190.325C196.452 190.425 196.02 190.475 195.569 190.475ZM190.238 182.704V180.451H197.24V182.704H190.238ZM205.12 190.325V177.185H208.161V190.325H205.12ZM217.212 180.076C218.012 180.076 218.726 180.238 219.352 180.564C219.99 180.876 220.49 181.365 220.853 182.028C221.216 182.679 221.398 183.517 221.398 184.543V190.325H218.469V184.994C218.469 184.18 218.288 183.58 217.925 183.192C217.574 182.804 217.074 182.61 216.423 182.61C215.96 182.61 215.541 182.71 215.165 182.91C214.802 183.098 214.515 183.392 214.302 183.792C214.102 184.193 214.002 184.706 214.002 185.332V190.325H211.073V180.226H213.87V183.023L213.345 182.178C213.707 181.502 214.227 180.983 214.903 180.62C215.578 180.257 216.348 180.076 217.212 180.076ZM229.006 190.475C227.917 190.475 226.948 190.256 226.097 189.818C225.246 189.368 224.576 188.748 224.088 187.96C223.612 187.171 223.375 186.277 223.375 185.275C223.375 184.262 223.612 183.367 224.088 182.591C224.576 181.803 225.246 181.189 226.097 180.751C226.948 180.301 227.917 180.076 229.006 180.076C230.07 180.076 230.996 180.301 231.784 180.751C232.573 181.189 233.155 181.821 233.53 182.647L231.259 183.868C230.996 183.392 230.664 183.042 230.264 182.816C229.876 182.591 229.451 182.478 228.987 182.478C228.487 182.478 228.036 182.591 227.636 182.816C227.235 183.042 226.916 183.361 226.679 183.774C226.453 184.187 226.341 184.687 226.341 185.275C226.341 185.864 226.453 186.364 226.679 186.777C226.916 187.19 227.235 187.509 227.636 187.735C228.036 187.96 228.487 188.072 228.987 188.072C229.451 188.072 229.876 187.966 230.264 187.753C230.664 187.528 230.996 187.171 231.259 186.683L233.53 187.922C233.155 188.736 232.573 189.368 231.784 189.818C230.996 190.256 230.07 190.475 229.006 190.475ZM235.161 190.325V176.396H238.09V190.325H235.161ZM245.069 190.475C244.23 190.475 243.48 190.313 242.816 189.987C242.165 189.662 241.659 189.167 241.296 188.504C240.933 187.828 240.751 186.971 240.751 185.932V180.226H243.68V185.501C243.68 186.339 243.855 186.959 244.205 187.359C244.568 187.747 245.075 187.941 245.726 187.941C246.176 187.941 246.577 187.847 246.927 187.659C247.278 187.459 247.553 187.159 247.753 186.758C247.954 186.345 248.054 185.832 248.054 185.219V180.226H250.982V190.325H248.204V187.547L248.711 188.354C248.373 189.055 247.872 189.587 247.209 189.95C246.558 190.3 245.845 190.475 245.069 190.475ZM258.031 190.475C257.08 190.475 256.223 190.262 255.46 189.837C254.696 189.399 254.089 188.792 253.639 188.016C253.201 187.24 252.982 186.327 252.982 185.275C252.982 184.212 253.201 183.292 253.639 182.516C254.089 181.74 254.696 181.139 255.46 180.714C256.223 180.288 257.08 180.076 258.031 180.076C258.882 180.076 259.627 180.263 260.265 180.639C260.904 181.014 261.398 181.584 261.748 182.347C262.099 183.11 262.274 184.087 262.274 185.275C262.274 186.452 262.105 187.428 261.767 188.204C261.429 188.967 260.941 189.537 260.303 189.912C259.677 190.288 258.92 190.475 258.031 190.475ZM258.538 188.072C259.014 188.072 259.446 187.96 259.834 187.735C260.221 187.509 260.528 187.19 260.753 186.777C260.991 186.352 261.11 185.851 261.11 185.275C261.11 184.687 260.991 184.187 260.753 183.774C260.528 183.361 260.221 183.042 259.834 182.816C259.446 182.591 259.014 182.478 258.538 182.478C258.05 182.478 257.612 182.591 257.224 182.816C256.836 183.042 256.523 183.361 256.286 183.774C256.06 184.187 255.948 184.687 255.948 185.275C255.948 185.851 256.06 186.352 256.286 186.777C256.523 187.19 256.836 187.509 257.224 187.735C257.612 187.96 258.05 188.072 258.538 188.072ZM261.185 190.325V188.26L261.241 185.257L261.054 182.272V176.396H263.982V190.325H261.185ZM271.705 190.475C270.553 190.475 269.54 190.25 268.664 189.799C267.8 189.349 267.13 188.736 266.655 187.96C266.179 187.171 265.942 186.277 265.942 185.275C265.942 184.262 266.173 183.367 266.636 182.591C267.112 181.803 267.756 181.189 268.57 180.751C269.383 180.301 270.303 180.076 271.329 180.076C272.318 180.076 273.206 180.288 273.995 180.714C274.796 181.127 275.428 181.727 275.891 182.516C276.354 183.292 276.585 184.224 276.585 185.313C276.585 185.426 276.579 185.557 276.567 185.707C276.554 185.845 276.542 185.976 276.529 186.101H268.326V184.393H274.99L273.863 184.9C273.863 184.374 273.757 183.918 273.544 183.53C273.332 183.142 273.037 182.841 272.662 182.629C272.287 182.403 271.849 182.291 271.348 182.291C270.847 182.291 270.403 182.403 270.015 182.629C269.64 182.841 269.346 183.148 269.133 183.548C268.92 183.936 268.814 184.399 268.814 184.938V185.388C268.814 185.939 268.933 186.427 269.17 186.852C269.421 187.265 269.765 187.584 270.203 187.81C270.653 188.022 271.179 188.129 271.78 188.129C272.318 188.129 272.787 188.047 273.188 187.885C273.601 187.722 273.976 187.478 274.314 187.153L275.872 188.842C275.409 189.368 274.827 189.774 274.126 190.062C273.425 190.338 272.618 190.475 271.705 190.475ZM281.933 190.475C281.069 190.475 280.237 190.375 279.436 190.175C278.648 189.962 278.022 189.699 277.559 189.386L278.535 187.284C278.998 187.572 279.542 187.81 280.168 187.997C280.806 188.173 281.432 188.26 282.045 188.26C282.721 188.26 283.197 188.179 283.472 188.016C283.76 187.853 283.904 187.628 283.904 187.34C283.904 187.103 283.791 186.927 283.566 186.815C283.353 186.69 283.065 186.596 282.702 186.533C282.339 186.471 281.939 186.408 281.501 186.345C281.075 186.283 280.644 186.201 280.206 186.101C279.768 185.989 279.367 185.826 279.004 185.613C278.641 185.401 278.347 185.113 278.122 184.75C277.909 184.387 277.803 183.918 277.803 183.342C277.803 182.704 277.984 182.14 278.347 181.652C278.723 181.164 279.261 180.783 279.962 180.507C280.662 180.219 281.501 180.076 282.477 180.076C283.165 180.076 283.866 180.151 284.58 180.301C285.293 180.451 285.887 180.67 286.363 180.958L285.387 183.042C284.899 182.754 284.404 182.56 283.904 182.46C283.416 182.347 282.94 182.291 282.477 182.291C281.826 182.291 281.351 182.378 281.05 182.553C280.75 182.729 280.6 182.954 280.6 183.229C280.6 183.48 280.706 183.667 280.919 183.792C281.144 183.918 281.438 184.018 281.801 184.093C282.164 184.168 282.558 184.237 282.984 184.299C283.422 184.349 283.86 184.431 284.298 184.543C284.736 184.656 285.13 184.819 285.481 185.031C285.844 185.232 286.138 185.513 286.363 185.876C286.588 186.227 286.701 186.69 286.701 187.265C286.701 187.891 286.513 188.448 286.138 188.936C285.762 189.412 285.218 189.787 284.504 190.062C283.804 190.338 282.946 190.475 281.933 190.475ZM296.884 188.091V179.419H299.305V188.091H296.884ZM293.636 184.9V182.61H302.572V184.9H293.636Z" fill="white"/>
<path d="M31.2998 140.099H55.9985V102.524L31.2998 140.099Z" fill="url(#paint0_linear_101_2)"/>
<mask id="mask1_101_2" style="mask-type:luminance" maskUnits="userSpaceOnUse" x="0" y="0" width="790" height="259">
<path d="M0 -7.69158e-06H789.391V258.087H0V-7.69158e-06Z" fill="white"/>
</mask>
<g mask="url(#mask1_101_2)">
<path d="M556.175 20.7821V24.7821" stroke="#666666" stroke-width="2.66667" stroke-miterlimit="10"/>
<path d="M556.175 32.5803V215.839" stroke="#666666" stroke-width="2.66667" stroke-miterlimit="10" stroke-dasharray="7.8 7.8"/>
<path d="M556.175 219.739V223.739" stroke="#666666" stroke-width="2.66667" stroke-miterlimit="10"/>
</g>
<path d="M113.044 45.4774H150.62V20.7787L113.044 45.4774Z" fill="url(#paint1_linear_101_2)"/>
<mask id="mask2_101_2" style="mask-type:luminance" maskUnits="userSpaceOnUse" x="0" y="0" width="790" height="259">
<path d="M0 -7.69158e-06H789.391V258.087H0V-7.69158e-06Z" fill="white"/>
</mask>
<g mask="url(#mask2_101_2)">
<path d="M31.3042 147.043H556.175" stroke="#666666" stroke-width="2.66667" stroke-miterlimit="10" stroke-dasharray="8 8"/>
</g>
<path d="M152.988 101.942C151.016 101.942 149.199 101.634 147.537 101.016C145.898 100.375 144.461 99.4723 143.226 98.3084C142.014 97.1445 141.064 95.7788 140.375 94.2111C139.71 92.6435 139.378 90.9214 139.378 89.045C139.378 87.1686 139.71 85.4465 140.375 83.8789C141.064 82.3112 142.026 80.9455 143.261 79.7816C144.496 78.6178 145.945 77.7271 147.608 77.1095C149.271 76.4682 151.1 76.1475 153.095 76.1475C155.304 76.1475 157.287 76.5157 159.045 77.252C160.826 77.9883 162.322 79.0572 163.534 80.4586L159.828 83.8789C158.926 82.9288 157.94 82.2281 156.871 81.7768C155.802 81.3018 154.639 81.0643 153.38 81.0643C152.168 81.0643 151.064 81.2543 150.066 81.6343C149.069 82.0143 148.202 82.5606 147.465 83.2732C146.753 83.9858 146.195 84.829 145.791 85.8028C145.411 86.7767 145.221 87.8574 145.221 89.045C145.221 90.2089 145.411 91.2777 145.791 92.2516C146.195 93.2254 146.753 94.0805 147.465 94.8168C148.202 95.5294 149.057 96.0757 150.031 96.4557C151.028 96.8358 152.121 97.0258 153.308 97.0258C154.449 97.0258 155.553 96.8476 156.622 96.4913C157.715 96.1113 158.772 95.4819 159.793 94.603L163.071 98.7716C161.717 99.7929 160.137 100.577 158.332 101.123C156.551 101.669 154.769 101.942 152.988 101.942ZM157.798 98.0234V88.6531H163.071V98.7716L157.798 98.0234ZM177.553 101.8C175.368 101.8 173.444 101.372 171.781 100.517C170.142 99.6623 168.872 98.4984 167.969 97.0258C167.066 95.5294 166.615 93.8311 166.615 91.9309C166.615 90.007 167.055 88.3087 167.933 86.8361C168.836 85.3397 170.059 84.1758 171.603 83.3445C173.147 82.4894 174.893 82.0618 176.84 82.0618C178.717 82.0618 180.403 82.4656 181.9 83.2732C183.42 84.057 184.619 85.1971 185.498 86.6935C186.377 88.1662 186.816 89.9357 186.816 92.0022C186.816 92.2159 186.805 92.4653 186.781 92.7504C186.757 93.0116 186.733 93.261 186.71 93.4986H171.14V90.2564H183.788L181.65 91.2183C181.65 90.2208 181.448 89.3538 181.045 88.6175C180.641 87.8812 180.083 87.3111 179.37 86.9073C178.658 86.4798 177.826 86.266 176.876 86.266C175.926 86.266 175.083 86.4798 174.347 86.9073C173.634 87.3111 173.076 87.893 172.672 88.6531C172.268 89.3894 172.066 90.2683 172.066 91.2896V92.1447C172.066 93.1898 172.292 94.1161 172.743 94.9237C173.218 95.7075 173.871 96.3132 174.703 96.7407C175.558 97.1445 176.555 97.3464 177.696 97.3464C178.717 97.3464 179.608 97.192 180.368 96.8833C181.152 96.5745 181.864 96.1113 182.505 95.4938L185.463 98.7003C184.584 99.6979 183.479 100.47 182.149 101.016C180.819 101.539 179.287 101.8 177.553 101.8ZM202.167 82.0618C203.687 82.0618 205.041 82.3706 206.229 82.9882C207.44 83.582 208.39 84.5083 209.079 85.7672C209.768 87.0023 210.112 88.5937 210.112 90.5414V101.515H204.554V91.3965C204.554 89.8526 204.21 88.7125 203.521 87.9762C202.856 87.2398 201.906 86.8717 200.671 86.8717C199.792 86.8717 198.996 87.0617 198.284 87.4417C197.595 87.798 197.049 88.3562 196.645 89.1163C196.265 89.8763 196.075 90.8502 196.075 92.0378V101.515H190.517V82.3469H195.825V87.6555L194.828 86.0522C195.517 84.7696 196.502 83.7839 197.785 83.0951C199.068 82.4063 200.528 82.0618 202.167 82.0618ZM224.802 101.8C222.617 101.8 220.693 101.372 219.031 100.517C217.392 99.6623 216.121 98.4984 215.218 97.0258C214.316 95.5294 213.865 93.8311 213.865 91.9309C213.865 90.007 214.304 88.3087 215.183 86.8361C216.085 85.3397 217.309 84.1758 218.852 83.3445C220.396 82.4894 222.142 82.0618 224.09 82.0618C225.966 82.0618 227.653 82.4656 229.149 83.2732C230.669 84.057 231.869 85.1971 232.748 86.6935C233.626 88.1662 234.066 89.9357 234.066 92.0022C234.066 92.2159 234.054 92.4653 234.03 92.7504C234.006 93.0116 233.983 93.261 233.959 93.4986H218.389V90.2564H231.037L228.9 91.2183C228.9 90.2208 228.698 89.3538 228.294 88.6175C227.89 87.8812 227.332 87.3111 226.619 86.9073C225.907 86.4798 225.076 86.266 224.125 86.266C223.175 86.266 222.332 86.4798 221.596 86.9073C220.883 87.3111 220.325 87.893 219.921 88.6531C219.518 89.3894 219.316 90.2683 219.316 91.2896V92.1447C219.316 93.1898 219.541 94.1161 219.993 94.9237C220.468 95.7075 221.121 96.3132 221.952 96.7407C222.807 97.1445 223.805 97.3464 224.945 97.3464C225.966 97.3464 226.857 97.192 227.617 96.8833C228.401 96.5745 229.113 96.1113 229.755 95.4938L232.712 98.7003C231.833 99.6979 230.729 100.47 229.399 101.016C228.068 101.539 226.536 101.8 224.802 101.8ZM237.766 101.515V82.3469H243.075V87.7624L242.327 86.1947C242.897 84.8409 243.811 83.8195 245.07 83.1307C246.329 82.4181 247.861 82.0618 249.666 82.0618V87.1923C249.429 87.1686 249.215 87.1567 249.025 87.1567C248.835 87.133 248.633 87.1211 248.419 87.1211C246.899 87.1211 245.664 87.5605 244.714 88.4393C243.787 89.2944 243.324 90.6364 243.324 92.4653V101.515H237.766ZM263.476 101.515V97.774L263.119 96.9545V90.2564C263.119 89.0688 262.751 88.1424 262.015 87.4774C261.302 86.8123 260.198 86.4798 258.701 86.4798C257.68 86.4798 256.671 86.646 255.673 86.9786C254.699 87.2873 253.868 87.7149 253.179 88.2612L251.184 84.3777C252.229 83.6414 253.488 83.0713 254.96 82.6675C256.433 82.2637 257.93 82.0618 259.45 82.0618C262.371 82.0618 264.64 82.7507 266.255 84.1283C267.87 85.5059 268.677 87.6555 268.677 90.577V101.515H263.476ZM257.633 101.8C256.136 101.8 254.854 101.551 253.785 101.052C252.716 100.529 251.896 99.8285 251.326 98.9497C250.756 98.0709 250.471 97.0852 250.471 95.9926C250.471 94.8524 250.744 93.8548 251.291 92.9998C251.861 92.1447 252.752 91.4796 253.963 91.0046C255.174 90.5058 256.754 90.2564 258.701 90.2564H263.796V93.4986H259.307C258.001 93.4986 257.098 93.7123 256.599 94.1399C256.124 94.5674 255.887 95.1018 255.887 95.7432C255.887 96.4557 256.16 97.0258 256.706 97.4533C257.276 97.8571 258.048 98.059 259.022 98.059C259.948 98.059 260.78 97.8452 261.516 97.4177C262.252 96.9664 262.787 96.3132 263.119 95.4581L263.974 98.0234C263.571 99.2585 262.834 100.197 261.766 100.838C260.697 101.479 259.319 101.8 257.633 101.8ZM273.708 101.515V75.0787H279.266V101.515H273.708ZM300.215 86.6223H312.221V91.1115H300.215V86.6223ZM300.642 96.8833H314.217V101.515H294.906V76.5751H313.753V81.2068H300.642V96.8833ZM330.068 82.0618C331.588 82.0618 332.942 82.3706 334.129 82.9882C335.341 83.582 336.291 84.5083 336.98 85.7672C337.668 87.0023 338.013 88.5937 338.013 90.5414V101.515H332.455V91.3965C332.455 89.8526 332.11 88.7125 331.422 87.9762C330.756 87.2398 329.806 86.8717 328.571 86.8717C327.692 86.8717 326.897 87.0617 326.184 87.4417C325.495 87.798 324.949 88.3562 324.545 89.1163C324.165 89.8763 323.975 90.8502 323.975 92.0378V101.515H318.417V82.3469H323.726V87.6555L322.728 86.0522C323.417 84.7696 324.403 83.7839 325.685 83.0951C326.968 82.4063 328.429 82.0618 330.068 82.0618ZM350.889 101.8C348.633 101.8 346.875 101.23 345.616 100.09C344.357 98.926 343.728 97.2039 343.728 94.9237V78.1071H349.286V94.8524C349.286 95.66 349.5 96.2895 349.927 96.7407C350.355 97.1683 350.937 97.3821 351.673 97.3821C352.552 97.3821 353.3 97.1445 353.918 96.6695L355.414 100.589C354.844 100.992 354.155 101.301 353.347 101.515C352.564 101.705 351.744 101.8 350.889 101.8ZM340.771 87.0498V82.7744H354.06V87.0498H340.771ZM358.534 101.515V82.3469H363.843V87.7624L363.094 86.1947C363.664 84.8409 364.579 83.8195 365.838 83.1307C367.097 82.4181 368.629 82.0618 370.434 82.0618V87.1923C370.196 87.1686 369.983 87.1567 369.792 87.1567C369.602 87.133 369.401 87.1211 369.187 87.1211C367.667 87.1211 366.432 87.5605 365.481 88.4393C364.555 89.2944 364.092 90.6364 364.092 92.4653V101.515H358.534ZM376.822 108.712C375.825 108.712 374.839 108.558 373.865 108.249C372.891 107.94 372.096 107.512 371.478 106.966L373.509 103.011C373.937 103.391 374.423 103.688 374.97 103.902C375.54 104.116 376.098 104.223 376.644 104.223C377.428 104.223 378.046 104.033 378.497 103.653C378.972 103.296 379.4 102.691 379.78 101.836L380.777 99.4841L381.205 98.8785L388.081 82.3469H393.425L384.768 102.691C384.15 104.235 383.437 105.446 382.63 106.325C381.846 107.204 380.967 107.821 379.993 108.177C379.043 108.534 377.986 108.712 376.822 108.712ZM380.1 102.263L371.549 82.3469H377.286L383.912 98.3797L380.1 102.263Z" fill="white"/>
<path d="M413.852 106.836C412.795 105.232 411.975 103.382 411.394 101.285C410.83 99.1698 410.548 96.8963 410.548 94.4642C410.548 92.0321 410.83 89.7587 411.394 87.6438C411.975 85.5113 412.795 83.6608 413.852 82.0923H417.791C416.681 84.0838 415.87 86.0929 415.359 88.1196C414.848 90.1288 414.592 92.2436 414.592 94.4642C414.592 96.6848 414.848 98.8085 415.359 100.835C415.87 102.844 416.681 104.845 417.791 106.836H413.852ZM417.829 101.708L426.077 83.2026H430.306L438.581 101.708H434.087L427.319 85.3703H429.011L422.217 101.708H417.829ZM421.953 97.7423L423.089 94.4907H432.606L433.769 97.7423H421.953ZM440.21 101.708V82.0923H444.334V101.708H440.21ZM448.161 101.708V82.0923H452.285V101.708H448.161ZM463.89 101.708V83.2026H472.297C474.306 83.2026 476.077 83.5903 477.61 84.3658C479.143 85.1236 480.342 86.1898 481.205 87.5645C482.069 88.9392 482.501 90.5694 482.501 92.4551C482.501 94.3232 482.069 95.9534 481.205 97.3457C480.342 98.7204 479.143 99.7954 477.61 100.571C476.077 101.329 474.306 101.708 472.297 101.708H463.89ZM468.173 98.1917H472.085C473.319 98.1917 474.385 97.9625 475.284 97.5043C476.2 97.0285 476.905 96.3588 477.399 95.4952C477.91 94.6316 478.165 93.6183 478.165 92.4551C478.165 91.2743 477.91 90.2609 477.399 89.415C476.905 88.5514 476.2 87.8905 475.284 87.4323C474.385 86.9565 473.319 86.7186 472.085 86.7186H468.173V98.1917ZM494.164 101.708V98.9319L493.899 98.3238V93.3539C493.899 92.4727 493.626 91.7854 493.08 91.2919C492.551 90.7985 491.731 90.5517 490.621 90.5517C489.863 90.5517 489.114 90.6751 488.374 90.9218C487.652 91.1509 487.035 91.4682 486.524 91.8735L485.043 88.992C485.819 88.4457 486.753 88.0227 487.845 87.7231C488.938 87.4235 490.048 87.2737 491.176 87.2737C493.344 87.2737 495.027 87.7848 496.226 88.807C497.424 89.8292 498.023 91.4241 498.023 93.5918V101.708H494.164ZM489.828 101.919C488.718 101.919 487.766 101.734 486.973 101.364C486.18 100.976 485.572 100.456 485.149 99.8042C484.726 99.1522 484.514 98.4208 484.514 97.6101C484.514 96.7641 484.717 96.0239 485.123 95.3895C485.545 94.755 486.206 94.2615 487.105 93.9091C488.004 93.539 489.176 93.3539 490.621 93.3539H494.401V95.7596H491.071C490.101 95.7596 489.432 95.9182 489.061 96.2354C488.709 96.5526 488.533 96.9492 488.533 97.425C488.533 97.9537 488.735 98.3767 489.141 98.6939C489.564 98.9935 490.136 99.1433 490.859 99.1433C491.546 99.1433 492.163 98.9847 492.71 98.6675C493.256 98.3326 493.652 97.848 493.899 97.2135L494.534 99.1169C494.234 100.033 493.688 100.729 492.895 101.205C492.102 101.681 491.079 101.919 489.828 101.919ZM503.295 107.048C502.555 107.048 501.823 106.933 501.101 106.704C500.378 106.475 499.788 106.158 499.33 105.752L500.836 102.818C501.154 103.1 501.515 103.32 501.92 103.479C502.343 103.637 502.757 103.717 503.163 103.717C503.744 103.717 504.203 103.576 504.537 103.294C504.89 103.029 505.207 102.58 505.489 101.946L506.229 100.201L506.547 99.7514L511.649 87.4852H515.614L509.19 102.58C508.732 103.726 508.203 104.624 507.604 105.276C507.022 105.929 506.37 106.387 505.648 106.651C504.943 106.915 504.159 107.048 503.295 107.048ZM505.727 102.263L499.383 87.4852H503.639L508.556 99.3813L505.727 102.263ZM519.597 106.836H515.658C516.803 104.845 517.623 102.844 518.116 100.835C518.627 98.8085 518.883 96.6848 518.883 94.4642C518.883 92.2436 518.627 90.1288 518.116 88.1196C517.623 86.0929 516.803 84.0838 515.658 82.0923H519.597C520.689 83.6608 521.518 85.5113 522.082 87.6438C522.646 89.7587 522.928 92.0321 522.928 94.4642C522.928 96.8963 522.646 99.1698 522.082 101.285C521.518 103.382 520.689 105.232 519.597 106.836Z" fill="white"/>
<path d="M600.448 91.2521V87.2808H606.13C607.861 87.2808 609.094 86.9244 609.827 86.2116C610.56 85.4785 610.927 84.5925 610.927 83.5539C610.927 82.3116 610.529 81.3035 609.735 80.5296C608.941 79.7557 607.678 79.3789 605.947 79.3993H599.196V76.8638H618.503V79.3993H611.14L612.179 78.0246C613.482 78.6152 614.429 79.4502 615.02 80.5296C615.611 81.609 615.906 82.7698 615.906 84.0121C615.906 85.5396 615.529 86.843 614.776 87.9223C614.042 89.0017 612.983 89.8265 611.599 90.3968C610.214 90.967 608.564 91.2521 606.65 91.2521H600.448ZM610.988 98.2477L605.428 89.6636H610.713L616.334 98.2477H610.988ZM599.196 83.615V81.0795H618.503V83.615H599.196ZM619.623 93.7571V90.4273L629.704 76.8638H634.898L625.03 90.4273L622.617 89.7247H639.449V93.7571H619.623ZM631.14 98.2477V93.7571L631.293 89.7247V85.7228H635.967V98.2477H631.14ZM650.094 98.6143C648.343 98.6143 646.774 98.1866 645.39 97.3313C644.005 96.4556 642.915 95.1929 642.121 93.5433C641.327 91.8936 640.929 89.8978 640.929 87.5558C640.929 85.2137 641.327 83.2179 642.121 81.5682C642.915 79.9186 644.005 78.6661 645.39 77.8108C646.774 76.935 648.343 76.4972 650.094 76.4972C651.866 76.4972 653.434 76.935 654.799 77.8108C656.183 78.6661 657.273 79.9186 658.067 81.5682C658.861 83.2179 659.259 85.2137 659.259 87.5558C659.259 89.8978 658.861 91.8936 658.067 93.5433C657.273 95.1929 656.183 96.4556 654.799 97.3313C653.434 98.1866 651.866 98.6143 650.094 98.6143ZM650.094 94.4292C650.929 94.4292 651.652 94.195 652.263 93.7266C652.894 93.2581 653.383 92.5148 653.729 91.4965C654.096 90.4782 654.279 89.1646 654.279 87.5558C654.279 85.9469 654.096 84.6333 653.729 83.615C653.383 82.5967 652.894 81.8534 652.263 81.385C651.652 80.9165 650.929 80.6823 650.094 80.6823C649.279 80.6823 648.556 80.9165 647.925 81.385C647.314 81.8534 646.825 82.5967 646.459 83.615C646.113 84.6333 645.939 85.9469 645.939 87.5558C645.939 89.1646 646.113 90.4782 646.459 91.4965C646.825 92.5148 647.314 93.2581 647.925 93.7266C648.556 94.195 649.279 94.4292 650.094 94.4292ZM661.459 102.952L663.475 95.6206L664.147 98.3699C663.271 98.3699 662.548 98.1154 661.978 97.6062C661.428 97.0971 661.153 96.3945 661.153 95.4984C661.153 94.6023 661.438 93.8895 662.008 93.36C662.579 92.8305 663.281 92.5657 664.116 92.5657C664.972 92.5657 665.674 92.8407 666.224 93.3905C666.774 93.92 667.049 94.6226 667.049 95.4984C667.049 95.7631 667.029 96.0279 666.988 96.2926C666.947 96.537 666.866 96.8425 666.743 97.2091C666.642 97.5553 666.469 98.0034 666.224 98.5532L664.483 102.952H661.459ZM678.047 98.6143C676.296 98.6143 674.728 98.1866 673.343 97.3313C671.958 96.4556 670.868 95.1929 670.074 93.5433C669.28 91.8936 668.883 89.8978 668.883 87.5558C668.883 85.2137 669.28 83.2179 670.074 81.5682C670.868 79.9186 671.958 78.6661 673.343 77.8108C674.728 76.935 676.296 76.4972 678.047 76.4972C679.819 76.4972 681.387 76.935 682.752 77.8108C684.136 78.6661 685.226 79.9186 686.02 81.5682C686.815 83.2179 687.212 85.2137 687.212 87.5558C687.212 89.8978 686.815 91.8936 686.02 93.5433C685.226 95.1929 684.136 96.4556 682.752 97.3313C681.387 98.1866 679.819 98.6143 678.047 98.6143ZM678.047 94.4292C678.882 94.4292 679.605 94.195 680.216 93.7266C680.847 93.2581 681.336 92.5148 681.682 91.4965C682.049 90.4782 682.232 89.1646 682.232 87.5558C682.232 85.9469 682.049 84.6333 681.682 83.615C681.336 82.5967 680.847 81.8534 680.216 81.385C679.605 80.9165 678.882 80.6823 678.047 80.6823C677.233 80.6823 676.51 80.9165 675.878 81.385C675.267 81.8534 674.778 82.5967 674.412 83.615C674.066 84.6333 673.893 85.9469 673.893 87.5558C673.893 89.1646 674.066 90.4782 674.412 91.4965C674.778 92.5148 675.267 93.2581 675.878 93.7266C676.51 94.195 677.233 94.4292 678.047 94.4292ZM698.781 98.6143C697.029 98.6143 695.461 98.1866 694.076 97.3313C692.691 96.4556 691.602 95.1929 690.808 93.5433C690.013 91.8936 689.616 89.8978 689.616 87.5558C689.616 85.2137 690.013 83.2179 690.808 81.5682C691.602 79.9186 692.691 78.6661 694.076 77.8108C695.461 76.935 697.029 76.4972 698.781 76.4972C700.553 76.4972 702.121 76.935 703.485 77.8108C704.87 78.6661 705.96 79.9186 706.754 81.5682C707.548 83.2179 707.945 85.2137 707.945 87.5558C707.945 89.8978 707.548 91.8936 706.754 93.5433C705.96 95.1929 704.87 96.4556 703.485 97.3313C702.121 98.1866 700.553 98.6143 698.781 98.6143ZM698.781 94.4292C699.616 94.4292 700.339 94.195 700.95 93.7266C701.581 93.2581 702.07 92.5148 702.416 91.4965C702.783 90.4782 702.966 89.1646 702.966 87.5558C702.966 85.9469 702.783 84.6333 702.416 83.615C702.07 82.5967 701.581 81.8534 700.95 81.385C700.339 80.9165 699.616 80.6823 698.781 80.6823C697.966 80.6823 697.243 80.9165 696.612 81.385C696.001 81.8534 695.512 82.5967 695.145 83.615C694.799 84.6333 694.626 85.9469 694.626 87.5558C694.626 89.1646 694.799 90.4782 695.145 91.4965C695.512 92.5148 696.001 93.2581 696.612 93.7266C697.243 94.195 697.966 94.4292 698.781 94.4292ZM719.514 98.6143C717.763 98.6143 716.195 98.1866 714.81 97.3313C713.425 96.4556 712.335 95.1929 711.541 93.5433C710.747 91.8936 710.35 89.8978 710.35 87.5558C710.35 85.2137 710.747 83.2179 711.541 81.5682C712.335 79.9186 713.425 78.6661 714.81 77.8108C716.195 76.935 717.763 76.4972 719.514 76.4972C721.286 76.4972 722.854 76.935 724.219 77.8108C725.604 78.6661 726.693 79.9186 727.488 81.5682C728.282 83.2179 728.679 85.2137 728.679 87.5558C728.679 89.8978 728.282 91.8936 727.488 93.5433C726.693 95.1929 725.604 96.4556 724.219 97.3313C722.854 98.1866 721.286 98.6143 719.514 98.6143ZM719.514 94.4292C720.349 94.4292 721.072 94.195 721.683 93.7266C722.315 93.2581 722.803 92.5148 723.15 91.4965C723.516 90.4782 723.7 89.1646 723.7 87.5558C723.7 85.9469 723.516 84.6333 723.15 83.615C722.803 82.5967 722.315 81.8534 721.683 81.385C721.072 80.9165 720.349 80.6823 719.514 80.6823C718.7 80.6823 717.977 80.9165 717.345 81.385C716.734 81.8534 716.246 82.5967 715.879 83.615C715.533 84.6333 715.36 85.9469 715.36 87.5558C715.36 89.1646 715.533 90.4782 715.879 91.4965C716.246 92.5148 716.734 93.2581 717.345 93.7266C717.977 94.195 718.7 94.4292 719.514 94.4292Z" fill="white"/>
<mask id="mask3_101_2" style="mask-type:luminance" maskUnits="userSpaceOnUse" x="0" y="0" width="790" height="259">
<path d="M0 -7.69158e-06H789.391V258.087H0V-7.69158e-06Z" fill="white"/>
</mask>
<g mask="url(#mask3_101_2)">
<path d="M688.175 187.796H645.565C641.147 187.796 637.565 184.215 637.565 179.796V146.752C637.565 142.335 641.147 138.752 645.565 138.752H688.175C692.592 138.752 696.175 142.335 696.175 146.752V179.796C696.175 184.215 692.592 187.796 688.175 187.796Z" fill="#4D4D4D"/>
<path d="M688.175 187.796H645.565C641.147 187.796 637.565 184.215 637.565 179.796V146.752C637.565 142.335 641.147 138.752 645.565 138.752H688.175C692.592 138.752 696.175 142.335 696.175 146.752V179.796C696.175 184.215 692.592 187.796 688.175 187.796Z" stroke="white" stroke-width="1.33333" stroke-miterlimit="10"/>
<path d="M726.667 179.974H702.203C699.257 179.974 696.869 177.586 696.869 174.641V151.909C696.869 148.963 699.257 146.575 702.203 146.575H726.667C729.612 146.575 732 148.963 732 151.909V174.641C732 177.586 729.612 179.974 726.667 179.974Z" fill="#4D4D4D"/>
<path d="M631.514 179.974H607.05C604.105 179.974 601.717 177.586 601.717 174.641V151.909C601.717 148.963 604.105 146.575 607.05 146.575H631.514C634.46 146.575 636.848 148.963 636.848 151.909V174.641C636.848 177.586 634.46 179.974 631.514 179.974Z" fill="#4D4D4D"/>
</g>
<path d="M665.992 172.966C663.985 172.966 662.188 172.476 660.6 171.496C659.013 170.492 657.764 169.045 656.854 167.154C655.944 165.263 655.489 162.976 655.489 160.292C655.489 157.607 655.944 155.32 656.854 153.429C657.764 151.539 659.013 150.103 660.6 149.123C662.188 148.119 663.985 147.617 665.992 147.617C668.023 147.617 669.82 148.119 671.384 149.123C672.971 150.103 674.22 151.539 675.13 153.429C676.041 155.32 676.496 157.607 676.496 160.292C676.496 162.976 676.041 165.263 675.13 167.154C674.22 169.045 672.971 170.492 671.384 171.496C669.82 172.476 668.023 172.966 665.992 172.966ZM665.992 168.169C666.949 168.169 667.778 167.901 668.478 167.364C669.202 166.827 669.762 165.975 670.159 164.808C670.579 163.641 670.789 162.136 670.789 160.292C670.789 158.448 670.579 156.942 670.159 155.775C669.762 154.608 669.202 153.756 668.478 153.219C667.778 152.682 666.949 152.414 665.992 152.414C665.059 152.414 664.23 152.682 663.506 153.219C662.806 153.756 662.246 154.608 661.826 155.775C661.429 156.942 661.231 158.448 661.231 160.292C661.231 162.136 661.429 163.641 661.826 164.808C662.246 165.975 662.806 166.827 663.506 167.364C664.23 167.901 665.059 168.169 665.992 168.169Z" fill="white"/>
<path d="M615.153 165.319V161.501H623.798V165.319H615.153ZM641.179 168.374V154.261H645.119V168.374H641.179ZM635.894 163.181V159.454H650.435V163.181H635.894Z" fill="white"/>
<path d="M57.9665 20.7787C43.2451 20.7787 31.2998 32.7254 31.2998 47.4454V140.099L150.62 20.7787H57.9665Z" fill="url(#paint2_radial_101_2)"/>
</g>
<defs>
<linearGradient id="paint0_linear_101_2" x1="43.6488" y1="107.043" x2="43.6488" y2="143.259" gradientUnits="userSpaceOnUse">
<stop stop-color="#ED1C24"/>
<stop offset="0.670405" stop-color="#ED1C24"/>
<stop offset="1" stop-color="#81272D"/>
</linearGradient>
<linearGradient id="paint1_linear_101_2" x1="113.043" y1="33.1284" x2="150.62" y2="33.1284" gradientUnits="userSpaceOnUse">
<stop stop-color="#ED1C24"/>
<stop offset="0.670405" stop-color="#ED1C24"/>
<stop offset="1" stop-color="#81272D"/>
</linearGradient>
<radialGradient id="paint2_radial_101_2" cx="0" cy="0" r="1" gradientUnits="userSpaceOnUse" gradientTransform="translate(70.09 60.2652) scale(59.66 59.66)">
<stop stop-color="#ED1C24"/>
<stop offset="0.670405" stop-color="#ED1C24"/>
<stop offset="1" stop-color="#81272D"/>
</radialGradient>
<clipPath id="clip0_101_2">
<rect width="789.391" height="258.087" fill="white"/>
</clipPath>
</defs>
</svg>
