<svg xmlns="http://www.w3.org/2000/svg" viewBox="0 0 29 29"><defs><style>.cls-1{fill:#fff;}</style></defs><g id="Layer_1" data-name="Layer 1"><path class="cls-1" d="M15.27.5a.81.81,0,0,1,.5.87c0,.3,0,.6,0,.89.48.14.95.25,1.4.42A7.51,7.51,0,0,1,22,8.51c0,.15.08.2.24.22a.92.92,0,0,1,.91,1v.63a.93.93,0,0,1-1,1l-.18,0-.24,2.09-.69,6c-.21,1.82-.41,3.65-.62,5.48,0,.36-.08.72-.13,1.09a1,1,0,0,1-.6.81.37.37,0,0,0-.15.24c0,.15,0,.3,0,.46a.92.92,0,0,1-.94.93H10.43a.93.93,0,0,1-.95-.93,1.21,1.21,0,0,1,0-.19.5.5,0,0,0-.32-.61A.84.84,0,0,1,8.71,26c-.26-2.29-.51-4.58-.78-6.87s-.53-4.61-.8-6.92L7,11.39H6.78a.91.91,0,0,1-.91-.9c0-.27,0-.53,0-.79a.91.91,0,0,1,.89-1c.18,0,.24-.07.27-.25A7.59,7.59,0,0,1,13,2.35l.27-.06c0-.3,0-.59,0-.89a.83.83,0,0,1,.51-.9Zm.84,23.63-1-.95a.42.42,0,1,1,.59-.59c.7.7,1.41,1.39,2.1,2.11a.74.74,0,0,1-.08,1.15,2.89,2.89,0,0,1-.28.23c.61,0,1.14,0,1.68,0,.25,0,.3-.1.32-.32.1-1,.23-2,.34-3.06l.42-3.66.42-3.58c.05-.44.09-.87.14-1.33H8.22c0,.13,0,.25,0,.36.2,1.67.39,3.33.58,5,.25,2.13.49,4.25.72,6.38,0,.18.1.22.27.22H12L11.84,26A4.68,4.68,0,0,1,10,22.63a4.61,4.61,0,0,1,1.09-3.5.75.75,0,0,1,1.1-.09c.73.7,1.44,1.42,2.15,2.15a.39.39,0,0,1-.16.66.42.42,0,0,1-.49-.14l-.9-.9a2.38,2.38,0,0,0,3.34,3.32Zm5-12.74H18.54c-.29,0-.48-.18-.47-.42a.41.41,0,0,1,.45-.41h3.17c.63,0,.63,0,.63-.61,0-.4,0-.4-.41-.4H7.37c-.69,0-.67,0-.69.69,0,.26.07.34.33.34h9.52a.41.41,0,0,1,0,.81H7.87c.06.54.14,1,.17,1.55,0,.28.12.34.38.34H19.14c.51,0,1,0,1.55,0,.09,0,.23-.08.24-.14C21,12.56,21.06,12,21.13,11.39Zm-7.9-2.68V8.4c0-.57,0-1.13,0-1.7a.66.66,0,0,1,.19-.41c.31-.23.64,0,.65.37,0,.59,0,1.19,0,1.78,0,.17,0,.25.23.25.75,0,.59.09.61-.6V7.6c0-1.14,0-2.28,0-3.42,0-.09-.06-.25-.11-.26a2.33,2.33,0,0,0-.59,0c-.05,0-.11.11-.12.17s0,.38,0,.57a.39.39,0,0,1-.38.4.42.42,0,0,1-.46-.4c0-.1,0-.2,0-.3V3.17c-2.42.16-5.58,3.43-5.37,5.54Zm2.56-5.54V8.7h5.38A6.65,6.65,0,0,0,15.79,3.17ZM11.68,19.75a3.89,3.89,0,0,0,5.46,5.47l-.44-.46a3.3,3.3,0,0,1-2.24.65,3.24,3.24,0,0,1-2.33-5.2ZM10.34,27c-.12.7-.1.72.56.72h7.48c.09,0,.26,0,.27-.06a2.33,2.33,0,0,0,0-.59s-.21-.07-.32-.07h-8ZM14.52,1.34c-.44,0-.44,0-.44.36s0,.48.32.47c.55,0,.52.09.52-.38S15,1.34,14.52,1.34Z"/><path class="cls-1" d="M13.9,22.56a.51.51,0,0,1-.52.42.42.42,0,0,1-.39-.45.53.53,0,0,1,.53-.42A.42.42,0,0,1,13.9,22.56Z"/><path class="cls-1" d="M14.78,23.4a.47.47,0,0,1-.43.51.4.4,0,0,1-.42-.4.49.49,0,0,1,.43-.51A.4.4,0,0,1,14.78,23.4Z"/><path class="cls-1" d="M16.88,20.55a.43.43,0,0,1-.41-.42.44.44,0,0,1,.43-.43.43.43,0,0,1,.41.45A.41.41,0,0,1,16.88,20.55Z"/><path class="cls-1" d="M17,16a.43.43,0,0,1,.42.42.43.43,0,0,1-.85,0A.43.43,0,0,1,17,16Z"/><path class="cls-1" d="M15.78,17.07a.42.42,0,0,1-.42.44.43.43,0,0,1-.42-.41.42.42,0,0,1,.42-.43A.4.4,0,0,1,15.78,17.07Z"/></g></svg>