<svg xmlns="http://www.w3.org/2000/svg" viewBox="0 0 29 29"><defs><style>.cls-1{fill:#fff;}</style></defs><g id="Layer_1" data-name="Layer 1"><path class="cls-1" d="M28.5,17.12a2.44,2.44,0,0,1-.39.33l-3.73,2.17a.68.68,0,0,1-.78,0c-1.16-.68-2.32-1.34-3.48-2a.35.35,0,0,0-.41,0c-.45.28-.92.54-1.38.8-.3.17-.55.12-.68-.12s0-.47.24-.64c.45-.26.9-.53,1.35-.77a.39.39,0,0,0,.24-.4c0-1.34,0-2.68,0-4a.63.63,0,0,1,.35-.62l3.83-2.21a.61.61,0,0,1,.67,0l3.85,2.24a1.6,1.6,0,0,1,.33.31Zm-4.07,1.43.24-.12,2.75-1.58a.38.38,0,0,0,.21-.39c0-1,0-2.07,0-3.11v-.27l-.11,0c-1,.57-2,1.13-2.95,1.71a.46.46,0,0,0-.15.31c0,1.05,0,2.11,0,3.16C24.42,18.36,24.43,18.44,24.43,18.55Zm-3.64-6.27c1.05.61,2.07,1.2,3.1,1.78a.33.33,0,0,0,.27,0l1.75-1,1.27-.74-.28-.17L24.79,10.9c-.26-.16-.54-.42-.81-.42s-.54.26-.81.42Zm0,4.7c.94.53,1.83,1.05,2.76,1.59,0-1.23,0-2.39,0-3.56,0-.08-.11-.19-.2-.24-.91-.54-1.82-1.06-2.74-1.59l-.23-.11V16.2l.26-.14c.39-.23.78-.46,1.18-.68a.43.43,0,0,1,.62.12.44.44,0,0,1-.16.62l-.16.09Z"/><path class="cls-1" d="M19,6.51v2a.35.35,0,0,0,.2.37c.53.29,1,.59,1.56.9.3.17.38.42.24.65s-.38.27-.67.11l-1.58-.92a.33.33,0,0,0-.39,0c-1.16.68-2.32,1.34-3.47,2a.72.72,0,0,1-.81,0c-1.12-.67-2.26-1.31-3.39-2a.47.47,0,0,0-.54,0c-.47.3-1,.56-1.44.84s-.62.18-.76-.08,0-.47.32-.67,1-.57,1.46-.84A.4.4,0,0,0,10,8.51c0-1.32,0-2.64,0-4a.74.74,0,0,1,.42-.72c1.24-.7,2.48-1.42,3.71-2.14a.68.68,0,0,1,.78,0c1.24.73,2.48,1.45,3.73,2.16a.68.68,0,0,1,.4.7C19,5.2,19,5.85,19,6.51ZM17.7,4.32,14.61,2.54a.39.39,0,0,0-.29,0c-.62.34-1.23.7-1.85,1.06l-1.12.65s0,.06,0,.07c1,.58,2,1.16,3,1.73a.28.28,0,0,0,.22,0C15.63,5.53,16.64,4.94,17.7,4.32Zm.42,3.93V5.1l-.26.15c-.91.52-1.81,1-2.72,1.56a.36.36,0,0,0-.2.37v3.17c0,.07,0,.15,0,.26L17.7,9l-1.15-.66c-.32-.19-.42-.43-.27-.67s.39-.27.69-.1Zm-4.06,2.37v-.29c0-1.05,0-2.09,0-3.14a.4.4,0,0,0-.24-.4L11.11,5.22l-.23-.11V8.25L12,7.6c.32-.18.58-.14.72.1s0,.47-.27.65L11.31,9Z"/><path class="cls-1" d="M.51,14.62c0-.74,0-1.47,0-2.21a.61.61,0,0,1,.33-.58q1.94-1.1,3.86-2.22a.61.61,0,0,1,.66,0l3.83,2.21a.64.64,0,0,1,.36.62c0,1.33,0,2.66,0,4a.44.44,0,0,0,.27.44c.45.24.89.5,1.32.76a.46.46,0,0,1,.25.63c-.13.25-.39.3-.69.13s-.9-.51-1.34-.78a.37.37,0,0,0-.45,0c-1.15.68-2.32,1.34-3.47,2a.68.68,0,0,1-.78,0L.87,17.44a.63.63,0,0,1-.37-.63C.52,16.08.51,15.35.51,14.62Zm4.05,3.94c0-.08,0-.11,0-.15,0-1.12,0-2.24,0-3.35a.44.44,0,0,0-.2-.28c-.92-.55-1.85-1.08-2.78-1.62l-.19-.09s0,0,0,.07c0,1.15,0,2.29,0,3.44a.3.3,0,0,0,.12.21ZM1.82,12.28c1.06.61,2.07,1.2,3.1,1.78.06,0,.2,0,.28,0L8,12.4l.18-.13c-1-.56-1.9-1.09-2.83-1.65a.57.57,0,0,0-.7,0C3.74,11.18,2.8,11.72,1.82,12.28ZM8.64,16.2V13.07l-.12,0c-1,.56-1.94,1.11-2.9,1.68a.42.42,0,0,0-.15.31c0,.83,0,1.67,0,2.51v.95L8.21,17,8,16.82c-.4-.23-.81-.45-1.2-.7a.42.42,0,0,1,0-.76.67.67,0,0,1,.48,0C7.7,15.64,8.15,15.92,8.64,16.2Z"/><path class="cls-1" d="M19,22.34c0,.72,0,1.44,0,2.16a.65.65,0,0,1-.36.64c-1.27.72-2.53,1.44-3.78,2.18a.66.66,0,0,1-.74,0c-1.26-.75-2.53-1.48-3.8-2.2a.64.64,0,0,1-.36-.62c0-1.46,0-2.92,0-4.37a.63.63,0,0,1,.36-.62c1.27-.72,2.54-1.46,3.8-2.2a.63.63,0,0,1,.71,0c1.27.75,2.55,1.48,3.83,2.21a.62.62,0,0,1,.34.6C19,20.86,19,21.6,19,22.34Zm-4.08,3.9c.06,0,.09,0,.11,0,1-.56,2-1.12,2.93-1.7a.42.42,0,0,0,.16-.32c0-1.05,0-2.1,0-3.15,0-.08,0-.15,0-.24H18l-3,1.73a.32.32,0,0,0-.12.21Zm-.88,0c0-1.22,0-2.39,0-3.55a.38.38,0,0,0-.18-.24c-.93-.55-1.87-1.09-2.81-1.63l-.17-.07a.2.2,0,0,0,0,.08q0,1.71,0,3.42a.3.3,0,0,0,.1.2ZM17.7,20c-1.06-.62-2.07-1.21-3.09-1.78a.4.4,0,0,0-.31.05c-.92.52-1.83,1.05-2.74,1.58l-.25.15c1,.6,2,1.19,3.06,1.76a.29.29,0,0,0,.24,0Z"/></g></svg>