<svg xmlns="http://www.w3.org/2000/svg" viewBox="0 0 29 29"><defs><style>.cls-1{fill:#fff;}</style></defs><g id="Layer_1" data-name="Layer 1"><path class="cls-1" d="M22,.18a1.24,1.24,0,0,1,.89,1.39c0,.27,0,.54,0,.84h1.36A4.39,4.39,0,0,1,27.68,4a4.16,4.16,0,0,1,1.08,2.74c0,2.17,0,4.33,0,6.5a1.11,1.11,0,1,1-2.22,0c0-2.06,0-4.11,0-6.17a2.22,2.22,0,0,0-1.26-2.12,2.37,2.37,0,0,0-.83-.22c-.51,0-1,0-1.58,0,0,.34,0,.67,0,1a1.12,1.12,0,0,1-1.12,1.22,1.13,1.13,0,0,1-1.1-1.22v-1H15.59v1a1.11,1.11,0,1,1-2.22,0c0-.33,0-.65,0-1h-5v1a1.11,1.11,0,1,1-2.22,0c0-.33,0-.66,0-1a14.63,14.63,0,0,0-1.9.1A2.17,2.17,0,0,0,2.52,6.89c0,.5,0,1,0,1.5V24a2.17,2.17,0,0,0,1.25,2.14,2.7,2.7,0,0,0,1.15.24c2.74,0,5.47,0,8.21,0a1.19,1.19,0,0,1,.95.37,1.11,1.11,0,0,1-.71,1.85h-.23c-2.78,0-5.57,0-8.36,0a4.44,4.44,0,0,1-4.24-3c-.11-.3-.16-.62-.24-.93V6.36c0-.05,0-.1,0-.15A4.41,4.41,0,0,1,2.43,3.07a4.64,4.64,0,0,1,2.7-.66h1c0-.3,0-.57,0-.84A1.24,1.24,0,0,1,7,.18h.44a1.23,1.23,0,0,1,.89,1.39c0,.27,0,.55,0,.82h5c0-.29,0-.55,0-.82a1.24,1.24,0,0,1,.9-1.39h.44a1.23,1.23,0,0,1,.89,1.39c0,.27,0,.55,0,.82h5.06c0-.29,0-.55,0-.82A1.23,1.23,0,0,1,21.54.18Z"/><path class="cls-1" d="M22.05,28.66a6.73,6.73,0,1,1,6.72-6.73A6.76,6.76,0,0,1,22.05,28.66Zm0-11.23A4.5,4.5,0,1,0,26.54,22,4.5,4.5,0,0,0,22.06,17.43Z"/><path class="cls-1" d="M8.36,11.85A1.12,1.12,0,0,1,7.25,13a1.11,1.11,0,0,1,0-2.22A1.12,1.12,0,0,1,8.36,11.85Z"/><path class="cls-1" d="M12.1,10.75a1.11,1.11,0,1,1,0,2.22A1.1,1.1,0,0,1,11,11.86,1.12,1.12,0,0,1,12.1,10.75Z"/><path class="cls-1" d="M16.93,10.75A1.12,1.12,0,0,1,18,11.88,1.1,1.1,0,0,1,16.9,13a1.12,1.12,0,0,1-1.09-1.11A1.13,1.13,0,0,1,16.93,10.75Z"/><path class="cls-1" d="M21.76,13a1.11,1.11,0,1,1,1.11-1.11A1.1,1.1,0,0,1,21.76,13Z"/><path class="cls-1" d="M8.36,16.7a1.11,1.11,0,1,1-1.12-1.11A1.12,1.12,0,0,1,8.36,16.7Z"/><path class="cls-1" d="M12.08,17.81A1.11,1.11,0,1,1,13.2,16.7,1.11,1.11,0,0,1,12.08,17.81Z"/><path class="cls-1" d="M8.36,21.54a1.12,1.12,0,0,1-1.12,1.11,1.11,1.11,0,0,1,0-2.22A1.12,1.12,0,0,1,8.36,21.54Z"/><path class="cls-1" d="M13.2,21.55a1.12,1.12,0,0,1-1.13,1.1,1.11,1.11,0,0,1,0-2.22A1.12,1.12,0,0,1,13.2,21.55Z"/><path class="cls-1" d="M23.15,20.82c.2,0,.36,0,.53,0a1.11,1.11,0,0,1,0,2.22c-.56,0-1.12,0-1.67,0A1.1,1.1,0,0,1,20.93,22c0-.78,0-1.56,0-2.33a1.09,1.09,0,0,1,1.11-1.08,1.11,1.11,0,0,1,1.1,1.07C23.16,20,23.15,20.39,23.15,20.82Z"/></g></svg>