<svg xmlns="http://www.w3.org/2000/svg" viewBox="0 0 29 29"><defs><style>.cls-1{fill:#fff;}</style></defs><g id="Layer_1" data-name="Layer 1"><path class="cls-1" d="M12.8,28.5c-.54-.07-1.07-.12-1.6-.22a13.76,13.76,0,0,1-7.38-3.8c-.28-.27-.28-.47,0-.75L5,22.59c.3-.3.47-.3.79,0a11.2,11.2,0,0,0,5,2.85,11.3,11.3,0,1,0,5.08-22A11,11,0,0,0,6.17,6L6,6.15s0,0,0,.1c.2.19.43.39.64.6s.22.66-.21.78L2,8.8c-.44.11-.68-.14-.56-.58.38-1.47.76-2.94,1.15-4.41.13-.49.46-.57.82-.22L4,4.3,4.36,4A13.55,13.55,0,0,1,7.1,2.12c.3-.16.54-.12.66.11s0,.45-.28.62A13.12,13.12,0,0,0,4.42,5.08c-.28.27-.47.26-.75,0s-.28-.3-.47-.51l-.87,3.3L5.62,7l-.49-.47a.41.41,0,0,1,0-.66,11.87,11.87,0,0,1,7.09-3.39A11.76,11.76,0,0,1,20.7,4.66a11.75,11.75,0,0,1,4.89,7.89,12,12,0,0,1-6.7,12.87,11.78,11.78,0,0,1-7.3,1,11.92,11.92,0,0,1-6.12-3L5.4,23.4l-.75.77c.45.36.93.78,1.45,1.14a13.18,13.18,0,1,0,12.44-23,13.05,13.05,0,0,0-9-.29L9.37,2c-.29.08-.5,0-.58-.24a.39.39,0,0,1,.32-.53A16.36,16.36,0,0,1,10.77.8,13.68,13.68,0,0,1,21.71,3.07a13.62,13.62,0,0,1,5.83,9.85,14,14,0,0,1-9.89,15,13.77,13.77,0,0,1-2.92.53l-.24.05Z"/><path class="cls-1" d="M22.89,14.39a9.34,9.34,0,0,1-3,7l0,0c-.25.22-.47.24-.65.05s-.13-.42.09-.65a13.44,13.44,0,0,0,1-1,8.42,8.42,0,1,0-7.74,3.11,8.2,8.2,0,0,0,5-.85l.1-.05c.32-.16.56-.12.68.12s0,.47-.32.61a15.21,15.21,0,0,1-1.79.72,9.25,9.25,0,1,1,6.65-10.21C22.85,13.62,22.86,14.06,22.89,14.39Z"/><path class="cls-1" d="M14.08,12.21v1.15a1.49,1.49,0,0,0,.18.84.7.7,0,0,1-.69,1,.83.83,0,0,0-.46.11c-.7.38-1.38.78-2.07,1.18a.47.47,0,0,1-.6,0,.44.44,0,0,1,.14-.73c.69-.41,1.39-.8,2.09-1.21a1,1,0,0,0,.52-.91c0-1,0-2,0-3,0-.38.16-.57.44-.57s.44.2.44.56Z"/><path class="cls-1" d="M8.54,12c-.32,0-.78-.38-.78-.64a.45.45,0,0,1,.44-.43c.33,0,.78.37.78.64A.46.46,0,0,1,8.54,12Z"/><path class="cls-1" d="M18.73,12.08c-.15-.14-.34-.23-.39-.36a.6.6,0,0,1,.1-.47,1,1,0,0,1,.5-.29.55.55,0,0,1,.45.15.5.5,0,0,1,0,.47A3.6,3.6,0,0,1,18.73,12.08Z"/><path class="cls-1" d="M13.19,8.43c0-.11,0-.25,0-.32a.82.82,0,0,1,.42-.3.36.36,0,0,1,.42.32,1.88,1.88,0,0,1,0,.58.4.4,0,0,1-.45.34.41.41,0,0,1-.41-.42,1.33,1.33,0,0,1,0-.2Z"/><path class="cls-1" d="M8.2,18.16c-.16-.15-.34-.24-.39-.37a.55.55,0,0,1,.09-.45,1.05,1.05,0,0,1,.52-.3.53.53,0,0,1,.45.16.49.49,0,0,1,0,.47A3.61,3.61,0,0,1,8.2,18.16Z"/><path class="cls-1" d="M18.74,17c.32,0,.78.39.77.65a.45.45,0,0,1-.45.42c-.32,0-.77-.36-.77-.62A.45.45,0,0,1,18.74,17Z"/><path class="cls-1" d="M11.13,19.61c0,.34-.38.77-.65.75a.43.43,0,0,1-.42-.44c0-.34.38-.77.65-.76A.44.44,0,0,1,11.13,19.61Z"/><path class="cls-1" d="M14.11,20.59c0,.14,0,.32-.12.41a.64.64,0,0,1-.44.18.66.66,0,0,1-.34-.34.93.93,0,0,1,0-.41.45.45,0,0,1,.44-.49.47.47,0,0,1,.44.49v.15Z"/><path class="cls-1" d="M10.51,8.64a.79.79,0,0,1,.57,1,.41.41,0,0,1-.54.21A1,1,0,0,1,10.07,9,.42.42,0,0,1,10.51,8.64Z"/><path class="cls-1" d="M16.52,9.84a.4.4,0,0,1-.37-.37,1,1,0,0,1,.48-.81.43.43,0,0,1,.53.21A.79.79,0,0,1,16.52,9.84Z"/><path class="cls-1" d="M16.8,20.36a.77.77,0,0,1-.6-1,0,0,0,0,0,0,0,.42.42,0,0,1,.54-.16,1,1,0,0,1,.45.81A.4.4,0,0,1,16.8,20.36Z"/><path class="cls-1" d="M7.57,14.06a1.46,1.46,0,0,1,.29,0,.44.44,0,0,1,.23.7.87.87,0,0,1-1.07,0,.43.43,0,0,1,.25-.69A1.51,1.51,0,0,1,7.57,14.06Z"/><path class="cls-1" d="M19.71,14.07h.23a.43.43,0,0,1,0,.86,2.14,2.14,0,0,1-.44,0,.44.44,0,1,1,0-.88h.18Z"/></g></svg>