<svg xmlns="http://www.w3.org/2000/svg" viewBox="0 0 29 29"><defs><style>.cls-1{fill:#fff;}</style></defs><g id="Layer_1" data-name="Layer 1"><path class="cls-1" d="M28.87,17.77c-.09.56-.17,1.12-.28,1.68a10.94,10.94,0,0,1-1.49,3.6.58.58,0,0,1-.84.24.55.55,0,0,1-.12-.83,10,10,0,0,0,1.53-4.41,10,10,0,0,0-2.39-7.71A9.94,9.94,0,0,0,17,6.78,10.19,10.19,0,0,0,13.46,26.3a9.94,9.94,0,0,0,9.36-.61c.07,0,.13-.08.19-.11.36-.22.69-.17.86.12a.58.58,0,0,1-.25.83,11,11,0,0,1-3,1.34A11.32,11.32,0,0,1,7,21.22.32.32,0,0,0,6.68,21c-1.16,0-2.32,0-3.48,0H2.89a.54.54,0,0,1-.51-.54.55.55,0,0,1,.51-.56H6.53c-.11-.73-.22-1.43-.34-2.16H3.74a.56.56,0,0,1-.58-.56.56.56,0,0,1,.58-.56c.71,0,1.42,0,2.13,0h.3c.09-.72.18-1.41.28-2.15H.92a1.58,1.58,0,0,1-.38,0,.55.55,0,0,1,.07-1.07,1.61,1.61,0,0,1,.31,0H6.53a.34.34,0,0,0,.37-.25c.26-.64.55-1.26.84-1.91H4.62c-.4,0-.66-.22-.66-.56A.58.58,0,0,1,4.62,10H8.27a.52.52,0,0,0,.47-.22A11.19,11.19,0,0,1,14.81,6L15,5.9a2.26,2.26,0,0,0,0-.26c0-.38,0-.76,0-1.15a1.93,1.93,0,0,1-1.37-1.34A1.89,1.89,0,0,1,15.45.72c1.38,0,2.75,0,4.13,0a1.91,1.91,0,0,1,.63,3.69c-.16.06-.22.12-.21.29,0,.39,0,.79,0,1.15.67.23,1.33.41,1.94.69a11.16,11.16,0,0,1,6.83,9c0,.23.06.46.1.69ZM17.53,1.89h-1.9a1.16,1.16,0,0,0-.49.09.72.72,0,0,0-.38.8.76.76,0,0,0,.77.6h4a.83.83,0,0,0,.22,0,.71.71,0,0,0,.54-.83.67.67,0,0,0-.69-.63C18.9,1.88,18.21,1.89,17.53,1.89ZM16.19,5.67h2.67V4.55H16.19Z"/><path class="cls-1" d="M17.52,8.25A8.72,8.72,0,1,1,8.82,17,8.72,8.72,0,0,1,17.52,8.25Zm0,1.14A7.58,7.58,0,1,0,25.11,17,7.57,7.57,0,0,0,17.54,9.39Z"/><path class="cls-1" d="M.68,21a.55.55,0,0,1-.55-.55.57.57,0,0,1,.55-.56.56.56,0,0,1,.57.57A.55.55,0,0,1,.68,21Z"/><path class="cls-1" d="M24.59,24.6a.56.56,0,0,1,.56-.58.58.58,0,0,1,.56.55.55.55,0,0,1-.56.57A.54.54,0,0,1,24.59,24.6Z"/><path class="cls-1" d="M17.53,18.71a1.73,1.73,0,0,1-1.64-2.3A.32.32,0,0,0,15.8,16c-.35-.32-.68-.67-1-1a.55.55,0,0,1-.07-.84.57.57,0,0,1,.86.05l1,1a.28.28,0,0,0,.36.09,1.53,1.53,0,0,1,1.15,0,.28.28,0,0,0,.36-.09c.84-.84,1.68-1.68,2.53-2.51a1,1,0,0,1,.44-.26.51.51,0,0,1,.54.29.53.53,0,0,1-.07.62c-.2.22-.41.42-.61.62-.68.68-1.35,1.36-2,2a.34.34,0,0,0-.09.39A1.73,1.73,0,0,1,17.53,18.71Zm0-1.16a.59.59,0,0,0,.61-.57.6.6,0,0,0-.58-.6.6.6,0,0,0-.62.59A.59.59,0,0,0,17.52,17.55Z"/><path class="cls-1" d="M18.09,11.23a2.43,2.43,0,0,1,0,.27.55.55,0,0,1-.53.54.56.56,0,0,1-.58-.49,3.21,3.21,0,0,1,0-.62.55.55,0,0,1,.58-.52.54.54,0,0,1,.53.56,2.26,2.26,0,0,1,0,.26Z"/><path class="cls-1" d="M23.29,16.42a2.08,2.08,0,0,1,.25,0,.56.56,0,0,1,.55.52.55.55,0,0,1-.48.58,3,3,0,0,1-.67,0,.54.54,0,0,1-.48-.59.54.54,0,0,1,.55-.52A2.61,2.61,0,0,1,23.29,16.42Z"/><path class="cls-1" d="M17,22.7a2.09,2.09,0,0,1,0-.25.56.56,0,0,1,1.11,0,2.62,2.62,0,0,1,0,.56.56.56,0,0,1-.56.55A.56.56,0,0,1,17,23,2.09,2.09,0,0,1,17,22.7Z"/><path class="cls-1" d="M11.81,16.41c.1,0,.2,0,.31,0a.54.54,0,0,1,.48.53.52.52,0,0,1-.44.56,3.28,3.28,0,0,1-.7,0,.55.55,0,0,1,0-1.1c.1,0,.21,0,.31,0Z"/></g></svg>