<svg xmlns="http://www.w3.org/2000/svg" viewBox="0 0 29 29"><defs><style>.cls-1{fill:#fff;}</style></defs><g id="Layer_1" data-name="Layer 1"><path class="cls-1" d="M11.29,4.93H26.76c.23,0,.46,0,.59.23s0,.43-.18.6q-4.41,5.45-8.8,10.9a.91.91,0,0,0-.18.53c0,2.72,0,5.45,0,8.18a.78.78,0,0,0,.55.82c1.13.47,2.25,1,3.37,1.45.24.1.44.22.39.51s-.3.35-.57.35H11.52c-.23,0-.46,0-.55-.29s0-.42.33-.56c1.15-.5,2.3-1,3.46-1.48a.73.73,0,0,0,.5-.77c0-2.75,0-5.51,0-8.27a.73.73,0,0,0-.13-.4Q12.2,13.1,9.26,9.48l-.08-.12A4.89,4.89,0,0,1,2,7.15a4.85,4.85,0,1,1,9.34-2.22Zm-3.95.84L7.53,6q4.16,5.13,8.3,10.28a1,1,0,0,1,.24.51q0,4.38,0,8.74a1.34,1.34,0,0,1-.88,1.31l-1.48.64-.26.14h6.49c-.54-.27-1.08-.52-1.63-.74a1.43,1.43,0,0,1-1-1.44c0-2.86,0-5.71,0-8.57a1.11,1.11,0,0,1,.2-.55l7.71-9.54.83-1ZM8.62,8.69,8.2,8.16c-.67-.82-1.34-1.64-2-2.48a.72.72,0,0,1-.11-.5c0-.22.26-.25.47-.25h3.87A4,4,0,1,0,4,8.54,4,4,0,0,0,8.62,8.69Z"/><path class="cls-1" d="M14.35,7.6a10.16,10.16,0,0,1,3.09.51,15.14,15.14,0,0,0,1.84.49,5.58,5.58,0,0,0,2.53-.25l.17,0a.41.41,0,0,1,.52.14.42.42,0,0,1-.07.56l-2.14,2.66-3.15,3.89c-.31.37-.54.38-.85,0L11,9c-.28-.35-.22-.59.19-.79A7.58,7.58,0,0,1,14.35,7.6ZM12,8.75l0,.11,4.77,5.9L21,9.46a10,10,0,0,1-1.55,0,13.58,13.58,0,0,1-2.16-.52,8.82,8.82,0,0,0-3.38-.47C13.26,8.5,12.61,8.65,12,8.75Z"/><path class="cls-1" d="M8.86,3.35a1.73,1.73,0,0,1-.18.32c-.24.27-.5.52-.76.77a.41.41,0,1,1-.6-.56,10.32,10.32,0,0,1,.82-.8A.53.53,0,0,1,8.57,3C8.69,3.07,8.76,3.23,8.86,3.35Z"/><path class="cls-1" d="M5.74,6.49a2.59,2.59,0,0,1-.22.36c-.23.24-.47.47-.71.7a.4.4,0,0,1-.62,0,.42.42,0,0,1,0-.62A8.85,8.85,0,0,1,5,6.23a.58.58,0,0,1,.45-.07C5.55,6.19,5.63,6.36,5.74,6.49Z"/><path class="cls-1" d="M4.45,2.92a1.52,1.52,0,0,1,.34.19l.75.74a.42.42,0,0,1,0,.6.4.4,0,0,1-.6,0,6.22,6.22,0,0,1-.76-.78.54.54,0,0,1-.07-.45C4.17,3.09,4.33,3,4.45,2.92Z"/><path class="cls-1" d="M4.23,4.93h.56a.39.39,0,0,1,.4.42.36.36,0,0,1-.39.39H3.65a.37.37,0,0,1-.38-.4.37.37,0,0,1,.38-.4,5.61,5.61,0,0,1,.58,0Z"/><path class="cls-1" d="M6.85,3.14c0,.18,0,.35,0,.53a.38.38,0,0,1-.4.41A.36.36,0,0,1,6,3.71,11.41,11.41,0,0,1,6,2.54a.38.38,0,0,1,.41-.38.39.39,0,0,1,.4.42C6.86,2.77,6.85,3,6.85,3.14Z"/><path class="cls-1" d="M6.85,7.58c0,.18,0,.37,0,.56a.37.37,0,0,1-.38.37A.36.36,0,0,1,6,8.16Q6,7.56,6,7a.36.36,0,0,1,.42-.36A.37.37,0,0,1,6.85,7C6.86,7.18,6.85,7.38,6.85,7.58Z"/></g></svg>