<svg xmlns="http://www.w3.org/2000/svg" viewBox="0 0 29 29"><defs><style>.cls-1{fill:#fff;}</style></defs><g id="Layer_1" data-name="Layer 1"><path class="cls-1" d="M.5,5.91c.06-.26.1-.52.17-.77A3.56,3.56,0,0,1,4.1,2.58a7.51,7.51,0,0,1,4,1.1,10.54,10.54,0,0,1,3.19,2.55A4.91,4.91,0,0,1,12,11.58a1.47,1.47,0,0,0-.07.17l1.9,1.7,1.91-1.7a.27.27,0,0,0,0-.22,3.75,3.75,0,0,1,1.08-3.84C18.91,5.65,21,3.6,23,1.55a1.19,1.19,0,0,1,.2-.19.5.5,0,0,1,.67,0,.49.49,0,0,1,0,.67l-.19.2L17.52,8.44a2.69,2.69,0,0,0-.66,3.12.55.55,0,0,1-.16.69L12.37,16.1A.52.52,0,0,1,11.5,16c-.55-.62-1.11-1.24-1.65-1.86a.28.28,0,0,0-.39-.1A5,5,0,0,1,3.75,13a11.35,11.35,0,0,1-3-4.88C.64,7.74.58,7.34.5,7Zm12.58,8.21-1.95-1.73c-.42-.37-.44-.49-.17-1A4,4,0,0,0,10.58,7,10.19,10.19,0,0,0,7.29,4.38a7.14,7.14,0,0,0-2.71-.8,2.63,2.63,0,0,0-3,2.18,4.43,4.43,0,0,0,.12,2,10.07,10.07,0,0,0,3,4.75,4,4,0,0,0,4.5.67c.77-.37.77-.37,1.35.28L12,15.08Z"/><path class="cls-1" d="M16.43,15.75l1.76,1.56,6.52,5.79a2.61,2.61,0,1,1-3.55,3.82c-.65-.71-1.28-1.44-1.93-2.16l-5.27-6-.12-.14-.28.31c-2.33,2.62-4.65,5.25-7,7.87A2.49,2.49,0,0,1,4,27.66a2.6,2.6,0,0,1-1.12-4.43c2-1.78,4-3.54,6-5.3a.51.51,0,0,1,.76,0,.5.5,0,0,1-.1.76L5.91,21.82,3.58,23.89a1.61,1.61,0,1,0,2.27,2.26l11.58-13c.3-.34.41-.36.83-.2a2.61,2.61,0,0,0,3-.63C23.32,10.2,25.4,8.11,27.49,6a1.37,1.37,0,0,1,.22-.2.5.5,0,0,1,.63,0,.49.49,0,0,1,.07.64,1.55,1.55,0,0,1-.21.23L22,12.93a3.68,3.68,0,0,1-3.78,1A.28.28,0,0,0,18,14Zm-1.92,2.16c.06.07.1.13.15.18,1.68,1.89,3.35,3.78,5,5.66.72.82,1.44,1.65,2.18,2.46a1.54,1.54,0,0,0,1.64.47,1.52,1.52,0,0,0,1.13-1.24,1.61,1.61,0,0,0-.61-1.6l-7-6.26L15.76,16.5C15.33,17,14.93,17.45,14.51,17.91Z"/><path class="cls-1" d="M21.32,10.32c-.48,0-.71-.43-.52-.75A.72.72,0,0,1,21,9.36l5-5a1,1,0,0,1,.22-.19.46.46,0,0,1,.6.09.47.47,0,0,1,.07.6,1.81,1.81,0,0,1-.18.21l-5,5A2.35,2.35,0,0,1,21.32,10.32Z"/><path class="cls-1" d="M19.8,9c-.17-.14-.35-.22-.42-.36a.79.79,0,0,1,0-.48c0-.09.12-.16.19-.23L24.51,3c.35-.35.63-.4.87-.15s.19.51-.16.86Q22.76,6.2,20.29,8.65A4.92,4.92,0,0,1,19.8,9Z"/></g></svg>