<svg xmlns="http://www.w3.org/2000/svg" viewBox="0 0 29 29"><defs><style>.cls-1{fill:#fff;}</style></defs><g id="Layer_1" data-name="Layer 1"><path class="cls-1" d="M13.36,28.5c-.54-.05-1.09-.1-1.63-.17A12.67,12.67,0,0,1,7,27a5.13,5.13,0,0,1-1.26-1,1.85,1.85,0,0,1,0-2.52A5.09,5.09,0,0,1,7.75,22a14.11,14.11,0,0,1,3.39-.9c-.08-.12-.15-.21-.22-.3C9.71,19.19,8.46,17.6,7.29,16a11,11,0,0,1-1.95-4.5A9.31,9.31,0,0,1,23.62,8a9.61,9.61,0,0,1-1.11,6.7,31.9,31.9,0,0,1-2.83,4.08l-1.81,2.31,1.31.26a9.73,9.73,0,0,1,2.95,1.1,5.15,5.15,0,0,1,1.12.9,1.9,1.9,0,0,1,0,2.69,4.92,4.92,0,0,1-1.76,1.23,14.27,14.27,0,0,1-4.21,1.08c-.54.07-1.08.12-1.63.17Zm1.12-4.76.19-.23q1.65-2.16,3.29-4.33c1.07-1.44,2.18-2.85,3.17-4.34A8.78,8.78,0,0,0,22.61,8.5,8.22,8.22,0,1,0,6.77,12.65,14.22,14.22,0,0,0,9,16.45c1.81,2.4,3.65,4.78,5.47,7.17A.44.44,0,0,1,14.48,23.74Zm-.36,3.67a19.07,19.07,0,0,0,6.07-.83,5.27,5.27,0,0,0,2.12-1.14.92.92,0,0,0,0-1.53,5,5,0,0,0-.93-.65,12.3,12.3,0,0,0-4.11-1.15.43.43,0,0,0-.3.16l-1.9,2.57q-.56.77-1.11,0c-.62-.86-1.26-1.71-1.89-2.58a.33.33,0,0,0-.36-.15c-.85.18-1.7.32-2.54.55a5.56,5.56,0,0,0-2.39,1.19c-.63.57-.65,1.13,0,1.66a6,6,0,0,0,1.45.84A16.74,16.74,0,0,0,14.12,27.41Z"/><path class="cls-1" d="M14.5,13.62a3.83,3.83,0,1,1,3.83-3.81A3.83,3.83,0,0,1,14.5,13.62Zm2.74-3.81a2.74,2.74,0,1,0-2.74,2.72A2.74,2.74,0,0,0,17.24,9.81Z"/><path class="cls-1" d="M21.61,9.57a1.91,1.91,0,0,1,0,.24.55.55,0,1,1-1.09,0,6,6,0,0,0-3.89-5.64c-.34-.13-.5-.35-.46-.62A.56.56,0,0,1,17,3.13a7.13,7.13,0,0,1,4.63,6.44Z"/><path class="cls-1" d="M14.54,3.78A.56.56,0,0,1,14,3.21a.55.55,0,0,1,1.09,0A.56.56,0,0,1,14.54,3.78Z"/></g></svg>