<svg xmlns="http://www.w3.org/2000/svg" viewBox="0 0 29 29"><defs><style>.cls-1{fill:#fff;}</style></defs><g id="Layer_1" data-name="Layer 1"><path class="cls-1" d="M14.06,28.5a8.76,8.76,0,0,1-1.32-.41,4,4,0,0,1-2.2-2.64l-.07-.23H3.1a.83.83,0,0,1-.83-.5.8.8,0,0,1,.19-.93l0,0A12.51,12.51,0,0,0,5.76,17.4,18.16,18.16,0,0,0,6,14.74c.05-1.11,0-2.23.07-3.33a8.19,8.19,0,0,1,4.16-6.47,12.67,12.67,0,0,1,1.59-.72.27.27,0,0,0,.21-.29,8.28,8.28,0,0,1,0-1.41,2.42,2.42,0,0,1,2.59-2A2.47,2.47,0,0,1,17,2.87c0,.34,0,.69,0,1,0,.19.06.25.23.32a8.33,8.33,0,0,1,5.53,6A10.58,10.58,0,0,1,23,12.34c.05,1.18,0,2.37.06,3.55a12.42,12.42,0,0,0,2.41,6.57c.33.45.7.87,1.07,1.29a.84.84,0,0,1-.66,1.47H18.54a6.86,6.86,0,0,1-.28.8,4.05,4.05,0,0,1-3.17,2.43l-.15.05ZM4.82,23.56H24.16s0,0,0-.06a2.2,2.2,0,0,0-.17-.25,14.12,14.12,0,0,1-2.59-7.32c-.07-1.17,0-2.35-.06-3.52A10.85,10.85,0,0,0,21.22,11,6.83,6.83,0,0,0,7.67,12.38c0,.86,0,1.73,0,2.59a14.38,14.38,0,0,1-2.1,7.45C5.33,22.8,5.08,23.17,4.82,23.56Zm7.39,1.67a2.43,2.43,0,0,0,2.43,1.63,2.38,2.38,0,0,0,2.14-1.63ZM15.31,3.8c0-.07,0-.15,0-.23a6.06,6.06,0,0,0,0-.74.83.83,0,0,0-.8-.69.81.81,0,0,0-.81.67,8.2,8.2,0,0,0,0,1Z"/><path class="cls-1" d="M2.2,11.94A12.19,12.19,0,0,1,5.75,3.61.84.84,0,0,1,7,3.55a.81.81,0,0,1,0,1.19A11.24,11.24,0,0,0,5,7.34a10.53,10.53,0,0,0-1.2,4.8,1.57,1.57,0,0,1,0,.37.8.8,0,0,1-.87.56.83.83,0,0,1-.72-.74C2.19,12.2,2.2,12.07,2.2,11.94Z"/><path class="cls-1" d="M26.81,11.94v.3a.83.83,0,0,1-.83.84.86.86,0,0,1-.82-.82,19.59,19.59,0,0,0-.32-2.54,10,10,0,0,0-2.69-4.89,1.45,1.45,0,0,1-.31-.5.78.78,0,0,1,.38-.91.84.84,0,0,1,1,.16,12.34,12.34,0,0,1,3.58,8.36Z"/></g></svg>