<svg xmlns="http://www.w3.org/2000/svg" viewBox="0 0 29 29"><defs><style>.cls-1{fill:#fff;}</style></defs><g id="Layer_1" data-name="Layer 1"><path class="cls-1" d="M14.92.5c.25,0,.51.07.76.12a5.28,5.28,0,0,1,4.43,4.73,12.77,12.77,0,0,1-.26,5.11,6.09,6.09,0,0,1-2,3.28,5.21,5.21,0,0,1-3.54,1.11A5.09,5.09,0,0,1,11,13.63,6,6,0,0,1,9.3,11a12.15,12.15,0,0,1-.5-4.9A6.62,6.62,0,0,1,9.69,3,5.13,5.13,0,0,1,13.39.6l.54-.1ZM18.76,7c0-.42-.05-.85-.1-1.28a4.64,4.64,0,0,0-.76-2.13,3.63,3.63,0,0,0-2.53-1.53,4.56,4.56,0,0,0-3.12.45,4,4,0,0,0-1.92,3.17,11.57,11.57,0,0,0,.07,3.62,5.55,5.55,0,0,0,1.23,2.85,3.82,3.82,0,0,0,3.81,1.09,3.62,3.62,0,0,0,2.75-2.48A10.17,10.17,0,0,0,18.76,7Z"/><path class="cls-1" d="M14.38,28.5a23.09,23.09,0,0,1-8.83-1.72c-.46-.2-.88-.45-1.34-.64a1.5,1.5,0,0,1-1-1.39,11.68,11.68,0,0,1,.05-3.34A3.58,3.58,0,0,1,6,18.29a15.13,15.13,0,0,0,4.2-1.94.77.77,0,0,1,1,0,.72.72,0,0,1-.12,1.19c-.75.45-1.49.9-2.27,1.27a17,17,0,0,1-2.38.89,2.2,2.2,0,0,0-1.68,1.93,10.24,10.24,0,0,0-.06,2.82.49.49,0,0,0,.3.44,19.31,19.31,0,0,0,5.43,1.77,22.88,22.88,0,0,0,9.25-.24A17.28,17.28,0,0,0,24,24.85a.44.44,0,0,0,.22-.28,8.63,8.63,0,0,0-.13-3.32,2,2,0,0,0-1.47-1.5,16.76,16.76,0,0,1-4.71-2.16.79.79,0,0,1-.41-.59.73.73,0,0,1,1.1-.73l.82.49a15.82,15.82,0,0,0,3.71,1.6,3.3,3.3,0,0,1,2.35,2.35,9.73,9.73,0,0,1,.26,3.72c0,.21-.06.43-.09.64A1.22,1.22,0,0,1,25,26a19.81,19.81,0,0,1-3.92,1.57A24.56,24.56,0,0,1,14.38,28.5Z"/></g></svg>