<svg xmlns="http://www.w3.org/2000/svg" viewBox="0 0 29 29"><defs><style>.cls-1{fill:#fa6400;}.cls-2{fill:#fff;}</style></defs><g id="Layer_1" data-name="Layer 1"><path class="cls-1" d="M28.5,11.12a6.91,6.91,0,0,1-1.05,3.49,20.67,20.67,0,0,1-3.65,4.58,59.63,59.63,0,0,1-8.9,7.1.64.64,0,0,1-.78,0,57.22,57.22,0,0,1-9.57-7.78,17.73,17.73,0,0,1-3.28-4.45,7.23,7.23,0,0,1-.72-2.28.61.61,0,0,0-.05-.12V10.58C.61,10,.67,9.39.83,8.81a8.13,8.13,0,0,1,5-5.63,7.94,7.94,0,0,1,8,1.13c.22.16.42.35.63.53.32-.24.61-.5.93-.72a8.15,8.15,0,0,1,10.28.64A8.47,8.47,0,0,1,28.5,11.12Z"/><path class="cls-2" d="M25.7,4.76a8.15,8.15,0,0,0-10.28-.64c-.32.22-.61.48-.93.72-.21-.18-.41-.37-.63-.53a7.94,7.94,0,0,0-8-1.13,8.13,8.13,0,0,0-5,5.63C.67,9.39.61,10,.5,10.58v1.09a.61.61,0,0,1,.05.12,7.23,7.23,0,0,0,.72,2.28,17.73,17.73,0,0,0,3.28,4.45,57.22,57.22,0,0,0,9.57,7.78.64.64,0,0,0,.78,0,59.63,59.63,0,0,0,8.9-7.1,20.67,20.67,0,0,0,3.65-4.58,6.91,6.91,0,0,0,1.05-3.49A8.47,8.47,0,0,0,25.7,4.76Zm.7,9.48a18,18,0,0,1-2.76,3.55,56.06,56.06,0,0,1-9,7.35.25.25,0,0,1-.33,0,55.71,55.71,0,0,1-8.91-7.29,21.4,21.4,0,0,1-2.75-3.47,6.28,6.28,0,0,1-.53-6A7.14,7.14,0,0,1,6.8,4a15.05,15.05,0,0,1,1.74-.33,7.38,7.38,0,0,1,5.3,2.08c.59.58.73.58,1.32,0a7.06,7.06,0,0,1,10.1.1,7.28,7.28,0,0,1,2.14,5.33A6.07,6.07,0,0,1,26.4,14.24Z"/><path class="cls-2" d="M25.56,10.71a1.82,1.82,0,0,1,0,.33.52.52,0,0,1-.48.47.52.52,0,0,1-.56-.42c-.08-.44-.1-.89-.22-1.32a4.14,4.14,0,0,0-2.51-2.86L21.5,6.8a.54.54,0,1,1,.37-1,6.31,6.31,0,0,1,1.09.5A5.39,5.39,0,0,1,25.56,10.71Z"/><path class="cls-2" d="M19,6.15a.56.56,0,0,1,.54-.54.55.55,0,0,1,.55.56.54.54,0,0,1-.57.53A.54.54,0,0,1,19,6.15Z"/></g></svg>