<svg xmlns="http://www.w3.org/2000/svg" viewBox="0 0 29 29"><defs><style>.cls-1{fill:#fff;}</style></defs><g id="Layer_1" data-name="Layer 1"><path class="cls-1" d="M15.06,18.6,13.5,20.54c-.38.47-.76.93-1.12,1.4a.63.63,0,0,1-.54.26H5.6a1.72,1.72,0,1,1,0-3.43H9.9a.48.48,0,0,0,.44-.2c.68-.86,1.38-1.7,2.06-2.56a.49.49,0,0,0,.09-.38A3.22,3.22,0,0,1,13,12.86l2.21-3.18.15-.2-1.11-.11-1.73-.15a.55.55,0,0,0-.48.19c-.82.85-1.65,1.7-2.5,2.53A1.51,1.51,0,1,1,7.48,9.75C8.32,8.91,9.17,8.09,10,7.26l.93-.91A1.42,1.42,0,0,1,12,5.91h5.64a2.25,2.25,0,0,1,1.18.32c.63.38,1.26.74,1.88,1.13a2.05,2.05,0,0,1,.94,2.36.41.41,0,0,0,.09.32c.62.63,1.25,1.25,1.89,1.87A.54.54,0,0,0,24,12h2.8a1.64,1.64,0,0,1,1.55,1.1A1.67,1.67,0,0,1,27.84,15a1.56,1.56,0,0,1-1.05.4H22.86a1.62,1.62,0,0,1-1.17-.49l-1.81-1.82-.23-.21-1.87,2.78L19,16.75l1.56,1.47a1.3,1.3,0,0,1,.41,1c0,2.48,0,5,0,7.46a1.75,1.75,0,0,1-1.18,1.76,1.81,1.81,0,0,1-2-.53,1.94,1.94,0,0,1-.42-1.29c0-1.83,0-3.66,0-5.49a.87.87,0,0,0-.31-.71C16.4,19.8,15.74,19.2,15.06,18.6Zm-.2-11.85H12a.78.78,0,0,0-.61.26c-.24.25-.49.49-.74.73L8,10.35a.72.72,0,0,0,0,1.13.71.71,0,0,0,1-.13c.82-.83,1.65-1.65,2.46-2.49a1.31,1.31,0,0,1,1.13-.44c1.11.11,2.22.19,3.33.3a.83.83,0,0,1,.52.23c.15.19,0,.4-.13.57L13.72,13.2a2.46,2.46,0,0,0,.43,3.54l3.46,3.07a1.5,1.5,0,0,1,.54,1.24c0,1.86,0,3.72,0,5.58a1,1,0,1,0,2,0c0-2.44,0-4.89,0-7.34a.76.76,0,0,0-.26-.6l-2.69-2.5c-.38-.37-.39-.45-.1-.88,1.2-1.79,2.41-3.58,3.6-5.37a1.24,1.24,0,0,0-.41-1.88c-.58-.35-1.15-.72-1.74-1a2.29,2.29,0,0,0-.95-.26C16.65,6.72,15.76,6.75,14.86,6.75Zm-1.93,9.91a1.38,1.38,0,0,0-.15.17c-.67.81-1.34,1.62-2,2.44a.8.8,0,0,1-.67.31H5.73a1.68,1.68,0,0,0-.45.06.91.91,0,0,0,.34,1.77h6a.57.57,0,0,0,.37-.2c.76-.92,1.5-1.85,2.25-2.78l.26-.34Zm7.19-4.52c.75.76,1.48,1.51,2.23,2.24a.89.89,0,0,0,.55.19c1.27,0,2.54,0,3.81,0a1,1,0,0,0,.45-.11.86.86,0,0,0-.42-1.63c-.79,0-1.58-.05-2.37,0a1.87,1.87,0,0,1-1.62-.67c-.48-.55-1-1-1.59-1.58Z"/><path class="cls-1" d="M19.31,3.46a3,3,0,1,1,3,3A3,3,0,0,1,19.31,3.46Zm3-2.16a2.18,2.18,0,1,0,2.18,2.22A2.17,2.17,0,0,0,22.29,1.3Z"/><path class="cls-1" d="M3,7.22H1.08c-.32,0-.49-.14-.49-.4s.17-.4.48-.4H5c.31,0,.49.16.48.41s-.17.38-.5.39Z"/><path class="cls-1" d="M6.11,13.39h2c.33,0,.5.14.5.39s-.17.41-.49.41h-4c-.32,0-.49-.16-.48-.41s.17-.39.47-.39Z"/><path class="cls-1" d="M7.42,4.73H5.49c-.33,0-.51-.15-.51-.41s.19-.39.51-.39c1.3,0,2.61,0,3.92,0,.32,0,.49.15.49.4s-.17.4-.49.4Z"/><path class="cls-1" d="M4.92,16.1H6.86c.33,0,.5.14.51.38s-.17.42-.51.42H2.93c-.32,0-.49-.15-.49-.4s.16-.39.49-.4Z"/><path class="cls-1" d="M6.66,7.21H6.45a.39.39,0,0,1,0-.78,1.35,1.35,0,0,1,.49,0,.37.37,0,0,1,.35.39.38.38,0,0,1-.38.39Z"/><path class="cls-1" d="M3.82,4.72a1.13,1.13,0,0,1-.26,0,.37.37,0,0,1-.34-.37.36.36,0,0,1,.3-.4,1.56,1.56,0,0,1,.57,0,.35.35,0,0,1,.31.42.36.36,0,0,1-.35.35.87.87,0,0,1-.23,0Z"/><path class="cls-1" d="M9.7,14.22c-.14,0-.31,0-.4-.13a.49.49,0,0,1-.14-.39.53.53,0,0,1,.3-.29,1.4,1.4,0,0,1,.46,0,.36.36,0,0,1,.39.37c0,.26-.13.39-.38.42H9.7Z"/><path class="cls-1" d="M1.27,16.1c.1,0,.22,0,.28,0s.29.22.29.34a.5.5,0,0,1-.24.39,1.11,1.11,0,0,1-.65,0,.54.54,0,0,1-.27-.38A.35.35,0,0,1,1,16.11h.26Z"/></g></svg>