<svg xmlns="http://www.w3.org/2000/svg" viewBox="0 0 29 29"><defs><style>.cls-1{fill:#fff;}</style></defs><g id="Layer_1" data-name="Layer 1"><path class="cls-1" d="M5.07,6.85H3.38c-.35,0-.7,0-1,0a.4.4,0,0,1-.43-.3A.45.45,0,0,1,2.1,6l3-2.14a1.43,1.43,0,0,1,.3-.16.37.37,0,0,1,.5.26,2.29,2.29,0,0,1,.06.58V8.48l5.85-.73V7.29H11c-.41,0-.57-.15-.57-.55V4.23c0-.39.17-.55.56-.55h7c.38,0,.54.17.54.56V6.75c0,.38-.16.54-.55.54h-.74l0,0v.43l5.85.73V8.24c0-1.22,0-2.43,0-3.64A3.81,3.81,0,0,1,23.13,4a.37.37,0,0,1,.55-.28,2.73,2.73,0,0,1,.43.26l2.75,2a.47.47,0,0,1,.24.57c-.08.26-.29.32-.54.31H24V8.75c.54.17,1.08.33,1.61.52a7.15,7.15,0,0,1,2,1.06,2.08,2.08,0,0,1,.87,1.77q0,4.46,0,8.91a2.1,2.1,0,0,1-.82,1.74,7.77,7.77,0,0,1-2.7,1.3,27.64,27.64,0,0,1-5.5,1,51.16,51.16,0,0,1-6.78.22,34.46,34.46,0,0,1-8.39-1.13,8.63,8.63,0,0,1-2.76-1.22,2.27,2.27,0,0,1-1-2c0-3,0-5.91,0-8.86a2,2,0,0,1,.81-1.68A8.73,8.73,0,0,1,4.25,9c.21-.06.44-.1.65-.18a.29.29,0,0,0,.16-.2C5.08,8,5.07,7.46,5.07,6.85Zm22.52,6.59c-.72.33-1.4.7-2.12,1a28.64,28.64,0,0,1-7.63,1.35,49.2,49.2,0,0,1-6.76,0A34.38,34.38,0,0,1,5.64,15a11.83,11.83,0,0,1-4.17-1.63H1.42c0,1,0,2.11,0,3.16a1,1,0,0,0,.42.91,4,4,0,0,0,.75.49,20.55,20.55,0,0,0,2,.78,32.4,32.4,0,0,0,8.65,1.18,46,46,0,0,0,7.23-.39,25.24,25.24,0,0,0,4.7-1,5.8,5.8,0,0,0,2-1,1.16,1.16,0,0,0,.45-1c0-1,0-1.94,0-2.91ZM21,13.14l.13,0,3,.61a.7.7,0,0,0,.25,0c.68-.26,1.37-.5,2-.8a2.92,2.92,0,0,0,.83-.61.71.71,0,0,0,0-1.08,2.63,2.63,0,0,0-.77-.6A13.46,13.46,0,0,0,24.72,10a35.56,35.56,0,0,0-9.46-1.29,40.81,40.81,0,0,0-8.47.68,15.63,15.63,0,0,0-3.91,1.12,5.17,5.17,0,0,0-1.15.75.76.76,0,0,0,0,1.23,2.24,2.24,0,0,0,.61.45c.65.3,1.33.56,2,.83a1.08,1.08,0,0,0,.71,0c.56-.15,1.12-.26,1.68-.37l1.22-.22,0-.08a1.7,1.7,0,0,1-.23-.17c-.54-.54-1.09-1.08-1.63-1.64-.28-.29-.22-.68.12-.79a.49.49,0,0,1,.55.18c.71.71,1.43,1.42,2.13,2.14a.56.56,0,0,0,.52.18c.92-.08,1.85-.15,2.78-.21.61,0,1.21,0,1.84-.07V10.11c0-.35.17-.56.45-.56s.45.21.45.56v2.54l4.77.34a.55.55,0,0,0,.33-.15l1.68-1.67c.2-.2.39-.41.6-.59a.43.43,0,0,1,.61,0,.45.45,0,0,1,0,.62,3.57,3.57,0,0,1-.27.28Zm-9.7,11.22V22.3c0-.4.16-.56.57-.56h5.21c.37,0,.53.17.54.54v2H18c1.13-.12,2.26-.23,3.38-.39a18.34,18.34,0,0,0,4.49-1.17A9.77,9.77,0,0,0,27.11,22a1.06,1.06,0,0,0,.48-1c0-.79,0-1.58,0-2.37v-.35c-.3.18-.55.34-.81.48A14.21,14.21,0,0,1,23.05,20a38.92,38.92,0,0,1-7,.76,42.56,42.56,0,0,1-10.62-.87,11.11,11.11,0,0,1-3.84-1.48l-.2-.12c0,.87,0,1.7,0,2.52a1.35,1.35,0,0,0,.79,1.4,16,16,0,0,0,2,.89,22.63,22.63,0,0,0,4.54.95C9.6,24.2,10.45,24.27,11.34,24.36ZM22.12,14.29a43.77,43.77,0,0,0-15.23,0A43.77,43.77,0,0,0,22.12,14.29ZM11.35,6.37h6.29V4.61H11.35Zm5.4,16.29H12.26V24.4h4.49Zm-4-15.36v.46h3.57V7.3ZM24,5v.89h1.25ZM5,5l-1.26.9H5Z"/><path class="cls-1" d="M3.22,16.12c0,.21,0,.41,0,.62a.45.45,0,0,1-.45.48.44.44,0,0,1-.45-.47c0-.43,0-.86,0-1.3a.45.45,0,1,1,.9,0C3.23,15.67,3.22,15.89,3.22,16.12Z"/><path class="cls-1" d="M26.68,16.12c0,.2,0,.41,0,.62a.45.45,0,0,1-.44.48.43.43,0,0,1-.45-.47c0-.43,0-.86,0-1.3a.45.45,0,1,1,.9,0C26.69,15.68,26.68,15.9,26.68,16.12Z"/><path class="cls-1" d="M6.38,17c0,.22,0,.43,0,.65a.46.46,0,0,1-.46.47.45.45,0,0,1-.44-.47q0-.66,0-1.32a.45.45,0,0,1,.46-.47.46.46,0,0,1,.44.46C6.39,16.56,6.38,16.78,6.38,17Z"/><path class="cls-1" d="M23.53,17c0,.23,0,.46,0,.68a.45.45,0,0,1-.45.48.46.46,0,0,1-.44-.49q0-.64,0-1.29a.45.45,0,1,1,.89,0C23.53,16.56,23.53,16.77,23.53,17Z"/><path class="cls-1" d="M10.44,17.9c0,.22,0,.44,0,.65A.46.46,0,0,1,10,19a.45.45,0,0,1-.45-.48c0-.43,0-.87,0-1.3a.44.44,0,0,1,.45-.47.44.44,0,0,1,.45.47C10.45,17.47,10.44,17.69,10.44,17.9Z"/><path class="cls-1" d="M18.56,17.88c0-.22,0-.44,0-.65a.43.43,0,0,1,.44-.45.43.43,0,0,1,.45.44c0,.45,0,.9,0,1.36a.45.45,0,1,1-.89,0C18.56,18.35,18.56,18.11,18.56,17.88Z"/><path class="cls-1" d="M14.05,18.12c0-.22,0-.43,0-.65a.45.45,0,0,1,.46-.47.45.45,0,0,1,.44.46q0,.66,0,1.32a.44.44,0,0,1-.46.47.45.45,0,0,1-.44-.48Z"/></g></svg>