<svg xmlns="http://www.w3.org/2000/svg" viewBox="0 0 29 29"><defs><style>.cls-1{fill:#fff;}</style></defs><g id="Layer_1" data-name="Layer 1"><path class="cls-1" d="M14.33,28.5c-.64-.35-1.3-.69-1.94-1.06A19.79,19.79,0,0,1,2.63,13.81c-.07-.33.05-.57.32-.62s.47.11.54.45A18.91,18.91,0,0,0,8.67,23.5a20.67,20.67,0,0,0,4.57,3.42l.2.09A48.07,48.07,0,0,1,8.3,1.94L3.8,5.73,4.17,6l2,1.48c.18.13.34.27.3.51s-.22.34-.42.42L3.33,9.49c-.17.07-.25.14-.23.33l.15,2.29c0,.07,0,.13,0,.19a.44.44,0,0,1-.4.45.41.41,0,0,1-.46-.37c-.07-1-.12-2.08-.17-3.11,0-.22.14-.34.34-.42l2.28-.91.29-.12-.91-.68-1.35-1a.44.44,0,0,1,0-.77L8.47.64A.46.46,0,0,1,9,.55.49.49,0,0,1,9.24,1c-.06,1.26-.15,2.52-.16,3.77a46.72,46.72,0,0,0,5.25,22c.05.08.1.17.16.29.06-.11.11-.18.15-.26A46.75,46.75,0,0,0,19.27,13,47.21,47.21,0,0,0,19.86,2.6c0-.52-.07-1-.1-1.55A.45.45,0,0,1,20,.55c.22-.11.38,0,.55.12l5.52,4.66c.37.3.36.57,0,.86L24.14,7.6l-.3.22,1.79.72c.24.09.49.2.73.28a.56.56,0,0,1,.41.6c-.17,8.4-3.85,14.67-11.32,18.65l-.79.43ZM20.69,1.93A48,48,0,0,1,15.54,27a1.7,1.7,0,0,0,.26-.12c6.57-3.8,9.82-9.55,10.1-17.06a.3.3,0,0,0-.23-.34c-.93-.36-1.86-.74-2.79-1.11-.19-.07-.37-.19-.35-.4a.77.77,0,0,1,.24-.44,3.8,3.8,0,0,1,.55-.42L25.2,5.73Z"/><path class="cls-1" d="M18.21,8.13a8.21,8.21,0,0,0,0-3.88L17.12,5a1.28,1.28,0,0,1-.25.15A.41.41,0,0,1,16.32,5a.38.38,0,0,1,.08-.54C17,4,17.64,3.57,18.27,3.18a.39.39,0,0,1,.59.28,10.54,10.54,0,0,1,.42,1.81,7.6,7.6,0,0,1-.38,3.57c-.17.44-.42.52-.8.27l-1.55-1c-.3-.2-.38-.43-.23-.66s.42-.27.72-.07Z"/><path class="cls-1" d="M10.78,8.13,12,7.34c.28-.19.55-.16.69.07s.08.47-.2.65L10.86,9.14a.45.45,0,0,1-.74-.24,8,8,0,0,1,0-5.41c.13-.38.4-.47.75-.24l1.61,1.07c.27.19.34.43.18.66s-.4.24-.67.06-.79-.52-1.21-.79A8.21,8.21,0,0,0,10.78,8.13Z"/><path class="cls-1" d="M14.49,4.44a1.75,1.75,0,1,1-1.75,1.77A1.75,1.75,0,0,1,14.49,4.44Zm0,.87a.88.88,0,1,0,0,1.75.87.87,0,0,0,.86-.88A.89.89,0,0,0,14.49,5.31Z"/><path class="cls-1" d="M14.5,9.25a1.33,1.33,0,0,1,1.31,1.33,1.3,1.3,0,0,1-1.31,1.29,1.31,1.31,0,1,1,0-2.62Zm0,1.75a.44.44,0,1,0-.42-.45A.44.44,0,0,0,14.48,11Z"/><path class="cls-1" d="M15.81,15a1.32,1.32,0,1,1-1.31-1.33A1.31,1.31,0,0,1,15.81,15Zm-.88,0a.44.44,0,1,0-.87,0,.44.44,0,0,0,.87,0Z"/></g></svg>