<svg xmlns="http://www.w3.org/2000/svg" viewBox="0 0 29 29"><defs><style>.cls-1{fill:#fff;}</style></defs><g id="Layer_1" data-name="Layer 1"><path class="cls-1" d="M1,17c0-.07.06-.13.08-.19a1.29,1.29,0,0,1,1.21-.91c.79,0,1.58,0,2.37,0a1.26,1.26,0,0,1,1.13.74.34.34,0,0,0,.33.2A13.26,13.26,0,0,1,7.76,17a3.84,3.84,0,0,1,1.78.86,3.85,3.85,0,0,0,2.55.88c.76,0,1.53,0,2.3,0a2.66,2.66,0,0,1,2.45,2.08,6.78,6.78,0,0,1,0,1.2,4,4,0,0,0,.71-.14l6.36-2.18L25.77,19a1.66,1.66,0,0,1,2.1.92,1.76,1.76,0,0,1-.68,2.23l-8.46,5.33a3.59,3.59,0,0,1-2,.52H5.91a.75.75,0,0,0-.53.17,2.42,2.42,0,0,1-.55.3H2.08A1.53,1.53,0,0,1,1,27.35Zm5,10.08H6.3c3.43,0,6.85,0,10.28,0a3.56,3.56,0,0,0,2-.59c2-1.29,4-2.55,6-3.82l2.08-1.31a.79.79,0,0,0,.38-.84.73.73,0,0,0-.6-.65A1.21,1.21,0,0,0,26,20l-8.08,2.77a3.45,3.45,0,0,1-1,.17c-1.24,0-2.48,0-3.73,0a3.62,3.62,0,0,0-1.87.48c-.19.11-.37.25-.56.36a.44.44,0,0,1-.63-.11.47.47,0,0,1,.12-.65,4.47,4.47,0,0,1,2.55-1c.87,0,1.75,0,2.62,0,.46,0,.61-.13.62-.61a1.77,1.77,0,0,0-.13-.69,1.7,1.7,0,0,0-1.57-1c-.77,0-1.55,0-2.32,0a6.4,6.4,0,0,1-.87-.08,4.39,4.39,0,0,1-2.09-1,3.91,3.91,0,0,0-3.06-.78ZM1.87,22.2V27c0,.42.16.59.56.59h2c.4,0,.57-.17.57-.58V17.41c0-.4-.16-.57-.55-.57h-2c-.47,0-.61.15-.61.64Z"/><path class="cls-1" d="M15.45,5.38a2.88,2.88,0,0,1,1.27,1c.43.43.85.87,1.27,1.31a2,2,0,0,1,.57,1.42v6.76a1.85,1.85,0,0,1-1.87,1.93c-1.16,0-2.32,0-3.49,0a1.84,1.84,0,0,1-1.86-1.94c0-2.25,0-4.5,0-6.75a1.93,1.93,0,0,1,.57-1.42c.58-.6,1.15-1.2,1.74-1.79a1.07,1.07,0,0,1,.42-.32.85.85,0,0,0,.58-.69,2.19,2.19,0,0,1,2.12-1.55h1.36a6.88,6.88,0,0,1,0-.79,2.22,2.22,0,0,1,2.14-2c1.86,0,3.72,0,5.58,0a2.27,2.27,0,0,1,2.07,2.94c-.47,1.51-1,3-1.52,4.48a2.1,2.1,0,0,1-1.33,1.29.27.27,0,0,0-.22.33c0,.47,0,.94,0,1.42a1.11,1.11,0,0,1-.29.76.67.67,0,0,0-.15.38c0,.32,0,.64,0,1a2.51,2.51,0,0,0,.3,1.49.87.87,0,0,1-.06.93.86.86,0,0,0-.06.9,1.33,1.33,0,0,1-.4,1.8,5.66,5.66,0,0,0-.49.49.86.86,0,0,1-1.28,0c-.29-.28-.57-.58-.84-.87a.92.92,0,0,1-.23-.91c0-.08,0-.16.07-.23a1.27,1.27,0,0,0,0-1.35.75.75,0,0,1,0-.81,2.29,2.29,0,0,0,.29-1.36,3.86,3.86,0,0,1,0-.68,1.09,1.09,0,0,0-.28-.92,1,1,0,0,1-.17-.57c0-.5,0-1,0-1.51a.21.21,0,0,0-.17-.25,2.26,2.26,0,0,1-1.45-1.51c-.37-1.09-.75-2.17-1.11-3.27a.29.29,0,0,0-.32-.23c-.48,0-1,0-1.45,0A1.32,1.32,0,0,0,15.45,5.38ZM19.4,4.24c.4,1.16.77,2.29,1.18,3.4a1.22,1.22,0,0,0,1.2.79c.85,0,1.71,0,2.56,0a1.26,1.26,0,0,0,1.25-.88c.51-1.43,1-2.86,1.46-4.3a1.35,1.35,0,0,0-1.21-1.8c-1.85,0-3.7,0-5.54,0A1.37,1.37,0,0,0,19,3.09c0,.15.07.22.23.22h1a.36.36,0,0,0,.23-.15,1.38,1.38,0,0,1,1.27-.78h2.59a1.85,1.85,0,0,1,.47.08A1.37,1.37,0,0,1,25.75,4a1.33,1.33,0,0,1-1.26,1.18c-.9,0-1.8,0-2.69,0a1.36,1.36,0,0,1-1.3-.78.35.35,0,0,0-.21-.15ZM14.5,6.33l-.29.27L12.59,8.27a1.16,1.16,0,0,0-.35.88v6.61a1,1,0,0,0,1,1.08h3.33a1,1,0,0,0,1.05-1.07V9.16a1.15,1.15,0,0,0-.35-.88c-.55-.56-1.09-1.14-1.64-1.7l-.27-.24c0,.37,0,.68,0,1a.36.36,0,0,0,.22.37,1.4,1.4,0,0,1,.57,1.79,1.33,1.33,0,0,1-1.66.75,1.31,1.31,0,0,1-.91-1.19,1.37,1.37,0,0,1,.69-1.37.41.41,0,0,0,.19-.24C14.51,7.1,14.5,6.75,14.5,6.33Zm7.66,3.05c0,.53,0,1,0,1.55a.36.36,0,0,0,.11.23,1.15,1.15,0,0,1,.34.88c0,.42,0,.84,0,1.26a2.59,2.59,0,0,1-.32,1.52.33.33,0,0,0,0,.29,1.57,1.57,0,0,1,.08,1.63,1.86,1.86,0,0,0-.1.31c0,.06,0,.14,0,.18l.78.83a7.15,7.15,0,0,1,.59-.62.46.46,0,0,0,.13-.61,1.67,1.67,0,0,1,.06-1.75.38.38,0,0,0,0-.29,2.29,2.29,0,0,1-.31-1.06c0-.57,0-1.15,0-1.72a1.05,1.05,0,0,1,.32-.84A.41.41,0,0,0,24,11c0-.52,0-1.05,0-1.59Zm.92-5.14h1.3a.43.43,0,0,0,.48-.45.45.45,0,0,0-.47-.47q-1.32,0-2.64,0a.47.47,0,0,0-.49.46.46.46,0,0,0,.51.46ZM15,8.44a.47.47,0,0,0-.45.47.45.45,0,0,0,.43.46.47.47,0,0,0,0-.93Z"/><path class="cls-1" d="M16.76,13.57v1.31a.94.94,0,0,1-1,1H14.13a.94.94,0,0,1-1-1V12.26a.94.94,0,0,1,1-1h1.64a1,1,0,0,1,1,1Zm-2.69-1.39V15h1.76V12.18Z"/></g></svg>