<svg xmlns="http://www.w3.org/2000/svg" viewBox="0 0 29 29"><defs><style>.cls-1{fill:#fff;}</style></defs><g id="Layer_1" data-name="Layer 1"><path class="cls-1" d="M28.5,16.08v4.49a1.89,1.89,0,0,0-.09.21,1.79,1.79,0,0,1-1,1.13.32.32,0,0,0-.21.35c0,1.18,0,2.37,0,3.55a2.59,2.59,0,0,1-1,2.18A3.14,3.14,0,0,1,25,28.5H2.8l-.07,0A2.59,2.59,0,0,1,.5,25.82c0-5,0-10,0-15a2.78,2.78,0,0,1,.09-.76A2.51,2.51,0,0,1,3.14,8.14c.62,0,1.24,0,1.86,0A1.09,1.09,0,0,0,5.46,8L7.54,6.8,17.64.92A2.56,2.56,0,0,1,20,.71a2.66,2.66,0,0,1,1.28,1.22c1.15,2,2.29,4,3.43,6a.5.5,0,0,0,.4.28,2.28,2.28,0,0,1,1.15.52,2.59,2.59,0,0,1,.93,2.1v3.55a.3.3,0,0,0,.2.33,1.81,1.81,0,0,1,1,1.17C28.45,16,28.47,16,28.5,16.08ZM25.94,14.5c0-.11,0-.18,0-.25,0-1.15,0-2.3,0-3.45a1.28,1.28,0,0,0-1.42-1.39H3.21a1.3,1.3,0,0,0-1.44,1.44V25.77a1.32,1.32,0,0,0,1.46,1.46H24.5A1.3,1.3,0,0,0,26,25.78V22.45c0-.1,0-.2,0-.31h-.38c-1.25,0-2.5,0-3.75,0a3.8,3.8,0,0,1-1-7.33,5,5,0,0,1,1.49-.26C23.47,14.47,24.69,14.5,25.94,14.5Zm-1.72,6.35h2.27a.65.65,0,0,0,.74-.69q0-1.85,0-3.69a.65.65,0,0,0-.7-.7c-1.57,0-3.14,0-4.7.05a2.47,2.47,0,0,0-2.23,2.56A2.51,2.51,0,0,0,22,20.84C22.76,20.88,23.49,20.85,24.22,20.85ZM7.88,8.08l0,.06h2.15A.86.86,0,0,0,10.49,8c3.13-1.81,6.26-3.64,9.39-5.46l.22-.14,0-.09A1.27,1.27,0,0,0,18.28,2L8.09,8Zm5,0v.06h.26c.62,0,1.24,0,1.86,0A1,1,0,0,0,15.56,8c1.87-1.07,3.73-2.16,5.59-3.24l.23-.16-.62-1.08Zm5,0,0,0H23.4L22,5.71Z"/><path class="cls-1" d="M22.13,17.05a1.27,1.27,0,1,1-1.26,1.27A1.26,1.26,0,0,1,22.13,17.05Z"/></g></svg>