<svg xmlns="http://www.w3.org/2000/svg" viewBox="0 0 29 29"><defs><style>.cls-1{fill:#fff;}</style></defs><g id="Layer_1" data-name="Layer 1"><path class="cls-1" d="M14.88,3.63a19.79,19.79,0,0,1,12.83,5,2.09,2.09,0,0,1,.15,3.14l-.86.86a2.13,2.13,0,0,1-3,.12A14.57,14.57,0,0,0,7,11.27,17.67,17.67,0,0,0,5,12.67,2.12,2.12,0,0,1,2,12.53l-.8-.8A2.11,2.11,0,0,1,1.3,8.55a19.55,19.55,0,0,1,4.39-2.9A20.72,20.72,0,0,1,14.88,3.63Zm.1.92a19.73,19.73,0,0,0-6,.81A18.62,18.62,0,0,0,1.88,9.28a1.15,1.15,0,0,0-.06,1.79l.82.81A1.14,1.14,0,0,0,4.39,12,15.52,15.52,0,0,1,12,8.45,15.55,15.55,0,0,1,24.61,12a1.15,1.15,0,0,0,1.72-.08l.82-.81a1.16,1.16,0,0,0-.07-1.85A19,19,0,0,0,15,4.55Z"/><path class="cls-1" d="M14.47,11.25a12.2,12.2,0,0,1,7.41,2.59,2.05,2.05,0,0,1,.2,3.15l-.91.92a2.06,2.06,0,0,1-2.8.21,6.5,6.5,0,0,0-7.72,0,2.1,2.1,0,0,1-2.14.31h0a5.58,5.58,0,0,1-2.05-2.1,2,2,0,0,1,.62-2.38,11.49,11.49,0,0,1,5.42-2.44C13.13,11.36,13.81,11.32,14.47,11.25Zm0,1a11.09,11.09,0,0,0-6.79,2.32,1.16,1.16,0,0,0-.46,1.32A5,5,0,0,0,9,17.59a1.31,1.31,0,0,0,1.15-.32A7.24,7.24,0,0,1,17,16.33a10.76,10.76,0,0,1,1.95,1,1.19,1.19,0,0,0,1.64-.15l.8-.8a1.16,1.16,0,0,0-.13-1.92A10.91,10.91,0,0,0,14.48,12.21Z"/><path class="cls-1" d="M11.42,22.3a3.07,3.07,0,0,1,6.13,0,3,3,0,0,1-3.1,3A3.1,3.1,0,0,1,11.42,22.3Zm3.05-2.14a2.12,2.12,0,0,0-2.11,2.14,2.19,2.19,0,0,0,2.15,2.15,2.15,2.15,0,0,0,0-4.29Z"/></g></svg>